<svg width="36" height="33" viewBox="0 0 36 33" fill="none" xmlns="http://www.w3.org/2000/svg">
<path d="M24.48 15.3374H23.04V12.7291C23.04 10.186 20.808 8.16453 18 8.16453C15.192 8.16453 12.96 10.186 12.96 12.7291V15.3374H11.52V12.7291C11.52 9.46868 14.4 6.86038 18 6.86038C21.6 6.86038 24.48 9.46868 24.48 12.7291V15.3374Z" fill="#49448C"/>
<path d="M23.76 26.4227H12.24C11.016 26.4227 10.08 25.575 10.08 24.4664V16.6415C10.08 15.533 11.016 14.6853 12.24 14.6853H23.76C24.984 14.6853 25.92 15.533 25.92 16.6415V24.4664C25.92 25.575 24.984 26.4227 23.76 26.4227ZM12.24 15.9894C11.808 15.9894 11.52 16.2503 11.52 16.6415V24.4664C11.52 24.8577 11.808 25.1185 12.24 25.1185H23.76C24.192 25.1185 24.48 24.8577 24.48 24.4664V16.6415C24.48 16.2503 24.192 15.9894 23.76 15.9894H12.24Z" fill="#49448C"/>
<path d="M18 19.9019C18.7953 19.9019 19.44 19.318 19.44 18.5977C19.44 17.8775 18.7953 17.2936 18 17.2936C17.2047 17.2936 16.56 17.8775 16.56 18.5977C16.56 19.318 17.2047 19.9019 18 19.9019Z" fill="#49448C"/>
<path d="M18.36 18.5977H17.64L16.92 22.5102H19.08L18.36 18.5977Z" fill="#49448C"/>
</svg>
