<svg width="40" height="40" viewBox="0 0 40 40" fill="none" xmlns="http://www.w3.org/2000/svg">
<path d="M35.76 16.9233C35.965 18.0217 36.0767 19.17 36.0767 20.3683C36.0767 29.7417 29.8033 36.4067 20.3283 36.4067C18.1736 36.4073 16.0398 35.9834 14.049 35.1591C12.0581 34.3348 10.2492 33.1264 8.7256 31.6027C7.20197 30.0791 5.99349 28.2702 5.16921 26.2793C4.34493 24.2885 3.92101 22.1547 3.92166 20C3.92101 17.8453 4.34493 15.7115 5.16921 13.7207C5.99349 11.7298 7.20197 9.92091 8.7256 8.39727C10.2492 6.87364 12.0581 5.66516 14.049 4.84088C16.0398 4.0166 18.1736 3.59268 20.3283 3.59334C24.7583 3.59334 28.46 5.22334 31.3 7.87001L26.675 12.495V12.4833C24.9533 10.8433 22.7683 10.0017 20.3283 10.0017C14.915 10.0017 10.515 14.575 10.515 19.99C10.515 25.4033 14.915 29.9867 20.3283 29.9867C25.24 29.9867 28.5833 27.1783 29.27 23.3217H20.3283V16.9233H35.7617H35.76Z" fill="#37474F"/>
</svg>
