<svg width="40" height="40" viewBox="0 0 40 40" fill="none" xmlns="http://www.w3.org/2000/svg">
<path fill-rule="evenodd" clip-rule="evenodd" d="M1.66669 4.72999C1.66669 3.91755 1.98943 3.13838 2.56392 2.56389C3.1384 1.9894 3.91757 1.66666 4.73002 1.66666H35.2667C35.6693 1.666 36.0681 1.74477 36.4403 1.89844C36.8124 2.05211 37.1506 2.27768 37.4354 2.56222C37.7203 2.84677 37.9462 3.1847 38.1003 3.55668C38.2544 3.92865 38.3336 4.32737 38.3334 4.72999V35.2667C38.3338 35.6694 38.2548 36.0682 38.101 36.4404C37.9471 36.8125 37.7214 37.1507 37.4367 37.4355C37.152 37.7203 36.814 37.9463 36.4419 38.1003C36.0699 38.2544 35.6711 38.3335 35.2684 38.3333H4.73002C4.3276 38.3333 3.92912 38.254 3.55735 38.1C3.18558 37.9459 2.84781 37.7201 2.56333 37.4355C2.27885 37.1509 2.05324 36.813 1.89939 36.4411C1.74554 36.0693 1.66647 35.6707 1.66669 35.2683V4.72999ZM16.18 15.6467H21.145V18.14C21.8617 16.7067 23.695 15.4167 26.45 15.4167C31.7317 15.4167 32.9834 18.2717 32.9834 23.51V33.2133H27.6384V24.7033C27.6384 21.72 26.9217 20.0367 25.1017 20.0367C22.5767 20.0367 21.5267 21.8517 21.5267 24.7033V33.2133H16.18V15.6467ZM7.01335 32.985H12.36V15.4167H7.01335V32.9833V32.985ZM13.125 9.68666C13.1351 10.1444 13.0536 10.5996 12.8854 11.0255C12.7172 11.4514 12.4656 11.8394 12.1454 12.1667C11.8252 12.494 11.4429 12.7541 11.0208 12.9317C10.5987 13.1092 10.1454 13.2007 9.68752 13.2007C9.22962 13.2007 8.77634 13.1092 8.35426 12.9317C7.93219 12.7541 7.54983 12.494 7.22964 12.1667C6.90944 11.8394 6.65784 11.4514 6.48962 11.0255C6.3214 10.5996 6.23994 10.1444 6.25002 9.68666C6.26981 8.78808 6.64066 7.93298 7.28316 7.30447C7.92566 6.67596 8.78873 6.32402 9.68752 6.32402C10.5863 6.32402 11.4494 6.67596 12.0919 7.30447C12.7344 7.93298 13.1052 8.78808 13.125 9.68666Z" fill="#37474F"/>
</svg>
