<svg width="261" height="48" viewBox="0 0 261 48" fill="none" xmlns="http://www.w3.org/2000/svg">
<rect width="261" height="48" rx="24" fill="#49448C"/>
<path d="M104.89 17.4H106.69V28.434H113.512V30H104.89V17.4ZM119.288 30.108C118.34 30.108 117.488 29.898 116.732 29.478C115.976 29.058 115.382 28.482 114.95 27.75C114.53 27.006 114.32 26.166 114.32 25.23C114.32 24.294 114.53 23.46 114.95 22.728C115.382 21.984 115.976 21.408 116.732 21C117.488 20.58 118.34 20.37 119.288 20.37C120.236 20.37 121.082 20.58 121.826 21C122.582 21.408 123.17 21.984 123.59 22.728C124.022 23.46 124.238 24.294 124.238 25.23C124.238 26.166 124.022 27.006 123.59 27.75C123.17 28.482 122.582 29.058 121.826 29.478C121.082 29.898 120.236 30.108 119.288 30.108ZM119.288 28.596C119.9 28.596 120.446 28.458 120.926 28.182C121.418 27.894 121.802 27.498 122.078 26.994C122.354 26.478 122.492 25.89 122.492 25.23C122.492 24.57 122.354 23.988 122.078 23.484C121.802 22.968 121.418 22.572 120.926 22.296C120.446 22.02 119.9 21.882 119.288 21.882C118.676 21.882 118.124 22.02 117.632 22.296C117.152 22.572 116.768 22.968 116.48 23.484C116.204 23.988 116.066 24.57 116.066 25.23C116.066 25.89 116.204 26.478 116.48 26.994C116.768 27.498 117.152 27.894 117.632 28.182C118.124 28.458 118.676 28.596 119.288 28.596ZM135.754 20.46V28.704C135.754 30.372 135.34 31.602 134.512 32.394C133.684 33.198 132.448 33.6 130.804 33.6C129.904 33.6 129.046 33.474 128.23 33.222C127.414 32.982 126.754 32.634 126.25 32.178L127.078 30.846C127.522 31.23 128.068 31.53 128.716 31.746C129.376 31.974 130.054 32.088 130.75 32.088C131.866 32.088 132.688 31.824 133.216 31.296C133.756 30.768 134.026 29.964 134.026 28.884V28.128C133.618 28.62 133.114 28.992 132.514 29.244C131.926 29.484 131.284 29.604 130.588 29.604C129.676 29.604 128.848 29.412 128.104 29.028C127.372 28.632 126.796 28.086 126.376 27.39C125.956 26.682 125.746 25.878 125.746 24.978C125.746 24.078 125.956 23.28 126.376 22.584C126.796 21.876 127.372 21.33 128.104 20.946C128.848 20.562 129.676 20.37 130.588 20.37C131.308 20.37 131.974 20.502 132.586 20.766C133.21 21.03 133.72 21.42 134.116 21.936V20.46H135.754ZM130.786 28.092C131.41 28.092 131.968 27.96 132.46 27.696C132.964 27.432 133.354 27.066 133.63 26.598C133.918 26.118 134.062 25.578 134.062 24.978C134.062 24.054 133.756 23.31 133.144 22.746C132.532 22.17 131.746 21.882 130.786 21.882C129.814 21.882 129.022 22.17 128.41 22.746C127.798 23.31 127.492 24.054 127.492 24.978C127.492 25.578 127.63 26.118 127.906 26.598C128.194 27.066 128.584 27.432 129.076 27.696C129.58 27.96 130.15 28.092 130.786 28.092ZM139.056 20.46H140.784V30H139.056V20.46ZM139.92 18.624C139.584 18.624 139.302 18.516 139.074 18.3C138.858 18.084 138.75 17.82 138.75 17.508C138.75 17.196 138.858 16.932 139.074 16.716C139.302 16.488 139.584 16.374 139.92 16.374C140.256 16.374 140.532 16.482 140.748 16.698C140.976 16.902 141.09 17.16 141.09 17.472C141.09 17.796 140.976 18.072 140.748 18.3C140.532 18.516 140.256 18.624 139.92 18.624ZM149.177 20.37C150.389 20.37 151.349 20.724 152.057 21.432C152.777 22.128 153.137 23.154 153.137 24.51V30H151.409V24.708C151.409 23.784 151.187 23.088 150.743 22.62C150.299 22.152 149.663 21.918 148.835 21.918C147.899 21.918 147.161 22.194 146.621 22.746C146.081 23.286 145.811 24.066 145.811 25.086V30H144.083V20.46H145.739V21.9C146.087 21.408 146.555 21.03 147.143 20.766C147.743 20.502 148.421 20.37 149.177 20.37Z" fill="#F2F2FA"/>
</svg>
