<svg width="294" height="293" viewBox="0 0 294 293" fill="none" xmlns="http://www.w3.org/2000/svg">
<g clip-path="url(#clip0_98_35)">
<path d="M193.555 268.188C216.282 263.188 236.903 250.935 247.986 231.925C265.802 201.388 248.623 186.755 256.258 159.399C260.521 144.13 273.538 137.062 282.268 124.981C319.629 73.2834 261.017 -7.41805 201.413 0.547119C193.533 1.51518 185.945 4.13157 179.144 8.226C171.42 12.9593 164.256 20.0974 154.782 20.9499C144.544 21.8533 134.212 16.4965 125.221 12.3104C102.583 1.79406 71.8588 -3.7472 47.7066 5.31223C29.6688 12.0305 21.9129 28.1898 20.844 46.5377C19.7751 64.8856 27.4674 84.8431 24.0252 102.777C20.5004 121.113 6.47738 136.044 1.94089 154.373C-1.05903 166.572 -0.54747 179.372 3.41651 191.293C7.38048 203.214 14.6353 213.771 24.3434 221.746C46.5359 239.935 74.6774 234.718 100.166 244.089C114.8 249.471 124.941 261.775 140.345 266.477C157.467 271.719 176.09 272.006 193.555 268.188Z" fill="#BEBBDE"/>
<path opacity="0.7" d="M193.555 268.188C216.282 263.188 236.903 250.935 247.986 231.925C265.802 201.388 248.623 186.755 256.258 159.399C260.521 144.13 273.538 137.062 282.268 124.981C319.629 73.2834 261.017 -7.41805 201.413 0.547119C193.533 1.51518 185.945 4.13157 179.144 8.226C171.42 12.9593 164.256 20.0974 154.782 20.9499C144.544 21.8533 134.212 16.4965 125.221 12.3104C102.583 1.79406 71.8588 -3.7472 47.7066 5.31223C29.6688 12.0305 21.9129 28.1898 20.844 46.5377C19.7751 64.8856 27.4674 84.8431 24.0252 102.777C20.5004 121.113 6.47738 136.044 1.94089 154.373C-1.05903 166.572 -0.54747 179.372 3.41651 191.293C7.38048 203.214 14.6353 213.771 24.3434 221.746C46.5359 239.935 74.6774 234.718 100.166 244.089C114.8 249.471 124.941 261.775 140.345 266.477C157.467 271.719 176.09 272.006 193.555 268.188Z" fill="white"/>
<path d="M146.504 293C194.82 293 233.989 290.437 233.989 287.274C233.989 284.112 194.82 281.548 146.504 281.548C98.1872 281.548 59.0189 284.112 59.0189 287.274C59.0189 290.437 98.1872 293 146.504 293Z" fill="#263238"/>
<path d="M59.6551 247.506C60.8767 248.034 63.8608 247.97 63.8608 247.97C63.8608 247.97 63.2245 246.017 63.1672 245.896C62.531 244.528 60.4441 242.27 58.758 242.499C58.4764 242.543 58.2075 242.648 57.9693 242.804C57.731 242.961 57.5287 243.166 57.3758 243.407C57.223 243.647 57.1231 243.918 57.0828 244.2C57.0424 244.482 57.0626 244.77 57.1419 245.044C57.4155 246.182 58.6117 247.048 59.6551 247.506Z" fill="#263238"/>
<path d="M60.6795 256.139C61.952 256.323 64.6052 255.554 64.8215 255.503C65.2584 257.021 65.7962 258.509 66.4312 259.956C66.8003 260.802 67.1947 261.648 67.6019 262.501C67.3602 262.151 67.1375 261.865 67.0993 261.788C66.1067 260.643 63.5172 259.008 61.952 259.676C61.6953 259.794 61.4663 259.964 61.2797 260.176C61.0932 260.387 60.9534 260.636 60.8693 260.906C60.7853 261.175 60.759 261.459 60.792 261.74C60.8251 262.02 60.9168 262.29 61.0612 262.533C61.6402 263.582 63.0209 264.104 64.1471 264.263C65.2732 264.422 67.5638 263.818 68.1682 263.627C68.3273 263.951 68.48 264.263 68.639 264.587C69.4153 266.127 70.1851 267.654 70.9041 269.174C71.1522 269.709 71.3813 270.25 71.6167 270.784C71.4004 270.466 71.2158 270.205 71.184 270.148C70.1915 269.003 67.5956 267.368 66.0304 268.029C65.7744 268.148 65.546 268.318 65.3601 268.53C65.1741 268.742 65.0347 268.991 64.9507 269.26C64.8668 269.529 64.8402 269.813 64.8728 270.093C64.9053 270.373 64.9962 270.643 65.1396 270.886C65.7186 271.942 67.1057 272.457 68.2255 272.623C69.3453 272.788 71.4067 272.235 72.1384 272.037C72.3547 272.591 72.5774 273.151 72.7747 273.698C72.8892 274.08 73.0355 274.429 73.131 274.818C73.2264 275.206 73.3409 275.575 73.4491 275.95C73.6209 276.675 73.8054 277.426 73.9581 278.132C74.0663 278.628 74.1617 279.105 74.2635 279.583C74.0154 279.042 73.5127 278.005 73.4618 277.922C72.6538 276.65 70.3378 274.627 68.6963 275.047C68.4247 275.124 68.1724 275.258 67.9559 275.439C67.7393 275.621 67.5632 275.845 67.439 276.099C67.3149 276.353 67.2454 276.63 67.2351 276.912C67.2248 277.194 67.2739 277.476 67.3792 277.738C67.7928 278.864 69.078 279.589 70.166 279.92C71.3558 280.282 73.9836 279.92 74.3271 279.92C74.4862 280.709 74.6325 281.478 74.7598 282.204C75.0461 283.807 75.2561 285.251 75.396 286.466H76.5095C76.3122 285.194 76.0577 283.705 75.7269 282.013C75.5678 281.211 75.3833 280.359 75.1861 279.468C75.9815 279.15 76.757 278.785 77.5084 278.374C78.3801 279.315 80.607 280.422 80.8933 280.562C80.5879 281.307 80.2888 282.026 79.9898 282.706C79.3535 284.125 78.7936 285.378 78.2719 286.447H79.4808C79.9198 285.461 80.4097 284.341 80.9187 283.094C81.2305 282.344 81.555 281.529 81.8667 280.69C82.1849 280.753 84.7999 281.288 86.0215 281.014C87.1222 280.76 88.4647 280.136 88.9546 279.042C89.08 278.789 89.1507 278.513 89.1622 278.232C89.1736 277.95 89.1256 277.669 89.0211 277.408C88.9166 277.146 88.7581 276.909 88.5559 276.713C88.3536 276.516 88.1123 276.365 87.8475 276.268C86.2378 275.727 83.7819 277.54 82.8784 278.775C82.8275 278.845 82.3376 279.691 82.0385 280.232C82.1658 279.888 82.293 279.557 82.4203 279.201C82.6748 278.501 82.9102 277.795 83.1711 277.031C83.2792 276.662 83.3937 276.287 83.5083 275.912C83.6228 275.536 83.7055 275.129 83.8073 274.735C84.03 273.812 84.2018 272.871 84.3609 271.916C84.9971 272.139 87.1667 272.903 88.3056 272.826C89.4445 272.75 90.8506 272.33 91.4869 271.325C91.6488 271.094 91.7603 270.831 91.8141 270.554C91.868 270.278 91.8629 269.992 91.7993 269.718C91.7357 269.443 91.6149 269.184 91.4449 268.959C91.2749 268.734 91.0594 268.547 90.8125 268.411C89.2982 267.629 86.5941 269.047 85.5188 270.135C85.4488 270.205 84.7681 271.058 84.399 271.535C84.4881 270.962 84.5835 270.39 84.6535 269.804C84.8635 268.118 85.0226 266.407 85.188 264.715C85.2389 264.193 85.2961 263.671 85.3534 263.15C85.5697 263.232 88.1529 264.193 89.4254 264.104C90.558 264.028 91.9704 263.614 92.6067 262.609C92.7684 262.378 92.8795 262.115 92.9329 261.838C92.9862 261.56 92.9806 261.275 92.9164 261C92.8522 260.725 92.7308 260.467 92.5601 260.242C92.3895 260.017 92.1734 259.831 91.9259 259.695C90.418 258.913 87.7139 260.331 86.6386 261.419C86.5559 261.502 85.5697 262.73 85.3661 263.054C85.487 261.909 85.6206 260.764 85.7988 259.644C86.0271 258.14 86.3544 256.652 86.7786 255.191C86.8741 255.229 89.5718 256.247 90.8761 256.158C92.0023 256.075 93.4211 255.662 94.0574 254.656C94.2193 254.426 94.3308 254.163 94.3846 253.886C94.4384 253.609 94.4334 253.324 94.3698 253.049C94.3061 252.774 94.1854 252.516 94.0154 252.291C93.8454 252.066 93.6299 251.879 93.3829 251.743C91.8686 250.96 89.1646 252.379 88.0893 253.467C88.0066 253.549 86.944 254.879 86.7722 255.134C86.7722 255.045 86.8168 254.955 86.8422 254.866C87.3064 253.402 87.9005 251.982 88.6174 250.623C89.0055 249.866 89.4127 249.166 89.8326 248.492C90.3162 248.734 92.5303 249.809 93.7138 249.86C94.8972 249.91 96.297 249.65 97.0605 248.721C97.2469 248.509 97.3867 248.26 97.4708 247.991C97.5548 247.722 97.5811 247.437 97.5481 247.157C97.5151 246.877 97.4235 246.607 97.2792 246.364C97.1349 246.122 96.9411 245.912 96.7105 245.75C95.2917 244.808 92.4413 245.941 91.2578 246.882C91.1942 246.933 90.6216 247.518 90.1635 247.97C90.3607 247.671 90.5516 247.334 90.7425 247.073C91.4551 246.004 92.1677 245.063 92.8103 244.242C93.1793 243.778 93.5229 243.364 93.8474 242.97C94.4391 242.97 96.8441 242.887 97.894 242.397C98.9438 241.907 100.095 241.016 100.344 239.852C100.41 239.578 100.419 239.294 100.369 239.016C100.319 238.739 100.211 238.475 100.053 238.242C99.8946 238.009 99.6892 237.812 99.45 237.663C99.2107 237.514 98.9429 237.417 98.6638 237.377C96.9714 237.199 94.9672 239.515 94.35 240.896C94.2928 241.016 93.6756 242.989 93.7138 242.989H93.7519C93.4275 243.351 93.1157 243.739 92.7339 244.178C92.0977 244.993 91.3278 245.915 90.5961 246.971C89.7891 248.104 89.0497 249.283 88.382 250.502C87.6181 251.86 86.9793 253.285 86.4732 254.758C86.4732 254.758 86.4732 254.796 86.4732 254.816C86.4732 254.319 86.4732 252.907 86.4414 252.818C86.2505 251.31 84.9907 248.524 83.3174 248.212C83.0372 248.168 82.7507 248.183 82.4771 248.258C82.2034 248.332 81.9486 248.464 81.7297 248.645C81.5108 248.825 81.3327 249.05 81.2071 249.304C81.0816 249.559 81.0115 249.837 81.0014 250.12C80.8996 251.316 81.7649 252.513 82.6112 253.301C83.5655 254.154 86.2123 254.975 86.4287 255.038C85.9555 256.552 85.5815 258.095 85.3089 259.657C85.1498 260.567 85.0162 261.483 84.8889 262.412C84.8889 261.979 84.8889 261.591 84.8889 261.54C84.6917 260.032 83.4319 257.246 81.7586 256.934C81.4784 256.89 81.1919 256.905 80.9182 256.98C80.6445 257.055 80.3898 257.187 80.1709 257.367C79.952 257.547 79.7738 257.772 79.6483 258.027C79.5227 258.281 79.4526 258.559 79.4426 258.843C79.3408 260.039 80.2125 261.235 81.0523 261.992C81.8922 262.749 84.1509 263.506 84.749 263.697L84.6153 264.759C84.4117 266.464 84.2145 268.163 83.9791 269.849C83.8964 270.434 83.7882 271.007 83.6864 271.586C83.6864 271.204 83.6864 270.879 83.6864 270.829C83.4955 269.327 82.2358 266.534 80.5624 266.223C80.2825 266.18 79.9968 266.197 79.724 266.273C79.4511 266.348 79.1972 266.48 78.9788 266.66C78.7603 266.84 78.5822 267.064 78.4561 267.318C78.3299 267.571 78.2585 267.848 78.2465 268.131C78.1447 269.321 79.01 270.523 79.8562 271.274C80.7024 272.025 82.7384 272.718 83.4446 272.947C83.3238 273.532 83.1965 274.118 83.0502 274.678C82.942 275.059 82.8657 275.435 82.732 275.81C82.5984 276.185 82.4903 276.561 82.3757 276.93C82.1212 277.63 81.8604 278.355 81.5931 279.035C81.415 279.506 81.2305 279.952 81.046 280.403C81.1414 279.824 81.2941 278.679 81.3005 278.577C81.283 277.236 80.9215 275.922 80.2506 274.76C80.2635 274.612 80.2635 274.463 80.2506 274.315C80.2155 274.035 80.1216 273.765 79.975 273.523C79.8285 273.281 79.6327 273.073 79.4004 272.912C79.168 272.752 78.9044 272.641 78.6266 272.589C78.3489 272.537 78.0632 272.544 77.7884 272.61C76.1468 273.043 75.1097 275.925 75.0334 277.439C75.0334 277.528 75.0843 278.507 75.1288 279.118C75.0461 278.762 74.9697 278.418 74.8807 278.049C74.7089 277.324 74.518 276.605 74.3144 275.829L73.9708 274.703C73.869 274.328 73.71 273.94 73.5764 273.558C73.2519 272.667 72.8765 271.783 72.482 270.905C73.1183 270.752 75.3706 270.18 76.2995 269.486C77.2284 268.793 78.1065 267.552 78.1065 266.369C78.1145 266.087 78.063 265.806 77.9554 265.545C77.8477 265.284 77.6863 265.049 77.4816 264.854C77.2769 264.66 77.0336 264.511 76.7674 264.416C76.5013 264.322 76.2183 264.285 75.9369 264.308C74.2508 264.492 72.7556 267.183 72.4756 268.666C72.4756 268.761 72.3547 269.849 72.3166 270.453C72.0748 269.925 71.833 269.397 71.5722 268.869C70.815 267.349 70.007 265.834 69.2053 264.32C68.9571 263.856 68.7154 263.385 68.4736 262.921C68.7027 262.87 71.3876 262.246 72.3993 261.47C73.3028 260.783 74.2571 259.657 74.2444 258.455C74.2515 258.173 74.1994 257.893 74.0913 257.633C73.9833 257.372 73.8217 257.138 73.6171 256.944C73.4126 256.75 73.1695 256.602 72.9038 256.508C72.6381 256.414 72.3557 256.377 72.0748 256.4C70.3887 256.578 68.8935 259.269 68.6136 260.758C68.6136 260.866 68.4481 262.437 68.4291 262.838C67.901 261.814 67.3792 260.789 66.9084 259.759C66.2642 258.368 65.7095 256.938 65.2478 255.477C65.356 255.477 68.1618 254.841 69.1989 254.02C70.096 253.327 71.0504 252.201 71.0441 251.005C71.0512 250.722 70.9989 250.441 70.8905 250.18C70.7821 249.919 70.6201 249.684 70.4149 249.49C70.2098 249.295 69.966 249.146 69.6996 249.052C69.4331 248.958 69.1498 248.921 68.8681 248.943C67.182 249.128 65.6868 251.819 65.4132 253.301C65.4132 253.422 65.2351 255.108 65.2287 255.414C65.2287 255.331 65.1651 255.248 65.1396 255.159C64.7196 253.682 64.4321 252.17 64.2807 250.642C64.1852 249.796 64.1407 248.988 64.1216 248.193C64.6561 248.129 67.0993 247.805 68.1109 247.194C69.1226 246.583 70.1469 245.591 70.2742 244.395C70.3126 244.117 70.2925 243.834 70.2152 243.565C70.1379 243.296 70.0051 243.045 69.8254 242.83C69.6456 242.615 69.4229 242.44 69.1715 242.316C68.9201 242.192 68.6455 242.122 68.3654 242.111C66.6666 242.111 64.9169 244.624 64.4461 246.061C64.4461 246.144 64.2489 246.971 64.1344 247.576C64.1344 247.213 64.1344 246.85 64.1344 246.507C64.1344 245.234 64.2171 244.045 64.2934 243.001C64.3443 242.41 64.4016 241.875 64.4652 241.379C64.9551 241.042 66.9211 239.655 67.5256 238.663C68.13 237.67 68.5945 236.302 68.1618 235.183C68.0668 234.917 67.9169 234.674 67.722 234.471C67.527 234.267 67.2914 234.106 67.0304 234C66.7694 233.893 66.4888 233.842 66.2069 233.851C65.925 233.859 65.6481 233.927 65.3941 234.05C63.8862 234.826 63.4854 237.867 63.7399 239.362C63.7399 239.49 64.3316 241.475 64.3761 241.455C64.3125 241.933 64.2489 242.448 64.1853 243.014C64.0835 244.051 63.9753 245.228 63.9435 246.52C63.8969 247.909 63.9309 249.301 64.0453 250.687C64.1662 252.237 64.4239 253.774 64.8151 255.28V255.337C64.5479 254.917 63.759 253.766 63.689 253.683C62.6964 252.538 60.1069 250.903 58.5417 251.571C58.285 251.688 58.056 251.859 57.8694 252.07C57.6829 252.282 57.5431 252.531 57.459 252.8C57.375 253.07 57.3487 253.354 57.3817 253.634C57.4148 253.915 57.5065 254.185 57.6509 254.427C58.179 255.464 59.5597 255.973 60.6795 256.139Z" fill="#263238"/>
<path d="M89.8135 248.161C89.8135 248.161 90.3544 246.176 90.3734 246.049C90.5834 244.547 90.1062 241.519 88.5728 240.781C88.3156 240.665 88.0368 240.605 87.7547 240.604C87.4726 240.603 87.1934 240.662 86.9354 240.776C86.6774 240.89 86.4462 241.057 86.257 241.266C86.0677 241.475 85.9246 241.722 85.8369 241.99C85.4297 243.116 85.9451 244.503 86.5623 245.451C87.2876 246.558 89.8135 248.155 89.8135 248.161Z" fill="#263238"/>
<path d="M207.718 252.684C208.78 253.149 211.363 253.085 211.363 253.085C211.363 253.085 210.81 251.393 210.759 251.291C210.193 250.108 208.398 248.148 206.941 248.345C206.7 248.384 206.469 248.473 206.264 248.607C206.059 248.741 205.885 248.917 205.753 249.123C205.62 249.329 205.533 249.561 205.497 249.803C205.461 250.045 205.476 250.292 205.542 250.528C205.783 251.539 206.821 252.283 207.718 252.684Z" fill="#263238"/>
<path d="M208.615 260.172C209.709 260.331 212.019 259.663 212.197 259.606C212.579 260.926 213.047 262.221 213.597 263.481C213.915 264.219 214.233 264.944 214.615 265.675C214.398 265.364 214.214 265.09 214.182 265.039C213.317 264.04 211.071 262.628 209.728 263.201C209.506 263.303 209.308 263.45 209.147 263.634C208.986 263.818 208.865 264.033 208.792 264.267C208.719 264.5 208.697 264.746 208.725 264.989C208.754 265.231 208.833 265.465 208.958 265.675C209.455 266.592 210.657 267.043 211.631 267.183C212.604 267.323 214.596 266.795 215.117 266.649L215.531 267.482C216.167 268.812 216.867 270.135 217.491 271.458C217.707 271.923 217.904 272.387 218.127 272.852L217.751 272.317C216.886 271.325 214.64 269.906 213.298 270.479C213.075 270.581 212.876 270.729 212.714 270.913C212.552 271.097 212.431 271.313 212.358 271.547C212.285 271.781 212.263 272.028 212.292 272.272C212.321 272.515 212.402 272.75 212.528 272.96C213.024 273.87 214.227 274.321 215.2 274.461C216.173 274.601 217.968 274.124 218.591 273.952C218.782 274.436 218.973 274.919 219.132 275.396C219.24 275.721 219.361 276.033 219.45 276.363C219.539 276.694 219.628 277 219.724 277.343C219.87 277.979 220.029 278.616 220.163 279.252C220.258 279.684 220.341 280.092 220.424 280.524C220.214 280.06 219.787 279.156 219.737 279.086C219.037 277.973 217.026 276.236 215.601 276.599C215.365 276.665 215.146 276.78 214.958 276.937C214.77 277.094 214.617 277.288 214.51 277.508C214.402 277.728 214.342 277.968 214.334 278.213C214.326 278.457 214.369 278.701 214.462 278.927C214.818 279.907 215.932 280.531 216.873 280.836C217.91 281.154 220.201 280.868 220.487 280.836C220.621 281.517 220.748 282.185 220.856 282.815C221.104 284.208 221.289 285.455 221.429 286.511H222.396C222.224 285.423 222.008 284.119 221.715 282.655C221.582 281.962 221.423 281.218 221.251 280.461C221.938 280.183 222.61 279.867 223.261 279.513C224.149 280.28 225.138 280.923 226.201 281.421C225.934 282.057 225.673 282.694 225.418 283.279C224.884 284.507 224.375 285.601 223.929 286.524H224.973C225.355 285.671 225.781 284.698 226.245 283.616C226.519 282.98 226.793 282.255 227.066 281.529C227.346 281.587 229.611 282.051 230.667 281.809C231.628 281.593 232.786 281.052 233.212 280.104C233.32 279.884 233.38 279.644 233.389 279.4C233.398 279.155 233.356 278.911 233.265 278.684C233.174 278.456 233.036 278.251 232.86 278.08C232.685 277.91 232.475 277.778 232.245 277.693C230.852 277.229 228.72 278.813 227.938 279.869C227.893 279.933 227.467 280.664 227.206 281.141C227.321 280.842 227.429 280.556 227.543 280.244C227.766 279.64 227.97 279.029 228.18 278.368C228.275 278.043 228.37 277.731 228.472 277.394C228.574 277.057 228.644 276.713 228.733 276.37C228.924 275.575 229.077 274.76 229.21 273.933C229.745 274.124 231.647 274.786 232.627 274.716C233.607 274.646 234.841 274.289 235.407 273.443C235.551 273.243 235.65 273.013 235.699 272.771C235.747 272.529 235.743 272.28 235.688 272.039C235.633 271.799 235.527 271.572 235.378 271.376C235.228 271.179 235.039 271.017 234.822 270.899C233.511 270.224 231.164 271.465 230.235 272.394C230.171 272.451 229.598 273.195 229.261 273.609C229.338 273.106 229.42 272.61 229.484 272.107C229.662 270.644 229.802 269.162 229.948 267.654C229.993 267.202 230.037 266.751 230.088 266.299C230.279 266.369 232.519 267.209 233.62 267.126C234.599 267.062 235.827 266.7 236.4 265.854C236.543 265.652 236.642 265.423 236.69 265.181C236.738 264.938 236.734 264.688 236.678 264.448C236.622 264.207 236.515 263.981 236.366 263.785C236.216 263.588 236.026 263.426 235.808 263.309C234.536 262.634 232.156 263.875 231.221 264.804C231.151 264.874 230.298 265.943 230.095 266.223C230.203 265.23 230.317 264.238 230.47 263.271C230.666 261.955 230.949 260.655 231.316 259.377C231.405 259.409 233.74 260.293 234.867 260.21C235.846 260.147 237.081 259.784 237.647 258.938C237.791 258.737 237.89 258.508 237.938 258.266C237.987 258.024 237.983 257.774 237.928 257.534C237.872 257.293 237.766 257.067 237.617 256.871C237.468 256.674 237.279 256.511 237.062 256.393C235.751 255.719 233.403 256.96 232.474 257.888C232.398 257.965 231.482 259.11 231.329 259.333C231.329 259.256 231.367 259.18 231.386 259.103C231.792 257.835 232.31 256.604 232.932 255.426C233.263 254.79 233.62 254.154 233.982 253.575C234.402 253.785 236.324 254.72 237.348 254.758C238.372 254.796 239.588 254.58 240.249 253.772C240.41 253.588 240.53 253.372 240.603 253.139C240.675 252.905 240.697 252.659 240.668 252.416C240.64 252.173 240.56 251.939 240.435 251.729C240.311 251.519 240.143 251.337 239.944 251.196C238.716 250.381 236.247 251.361 235.217 252.182C235.166 252.226 234.644 252.742 234.275 253.123C234.44 252.862 234.606 252.589 234.771 252.347C235.407 251.418 236.044 250.604 236.565 249.891C236.884 249.484 237.202 249.128 237.463 248.797C237.978 248.797 240.065 248.721 240.975 248.295C241.885 247.868 242.883 247.098 243.1 246.081C243.157 245.843 243.164 245.596 243.12 245.355C243.076 245.114 242.982 244.886 242.844 244.684C242.706 244.482 242.527 244.311 242.319 244.182C242.111 244.053 241.879 243.97 241.636 243.937C240.173 243.778 238.455 245.782 237.902 246.984C237.851 247.092 237.316 248.797 237.342 248.797H237.373C237.1 249.109 236.801 249.433 236.489 249.828C235.916 250.534 235.28 251.336 234.638 252.252C233.942 253.233 233.304 254.255 232.729 255.312C232.075 256.494 231.525 257.73 231.087 259.008C231.089 259.023 231.089 259.038 231.087 259.053C231.087 258.62 231.087 257.411 231.087 257.322C230.915 256.05 229.815 253.594 228.37 253.327C228.129 253.29 227.883 253.304 227.647 253.369C227.411 253.433 227.192 253.547 227.003 253.702C226.814 253.856 226.66 254.049 226.55 254.267C226.44 254.485 226.378 254.724 226.366 254.968C226.277 256.005 227.003 257.042 227.76 257.698C228.587 258.435 230.884 259.148 231.068 259.205C230.654 260.516 230.329 261.853 230.095 263.207C229.955 263.996 229.84 264.791 229.732 265.593C229.732 265.217 229.732 264.887 229.732 264.842C229.56 263.538 228.46 261.114 227.022 260.847C226.78 260.809 226.532 260.822 226.296 260.887C226.06 260.951 225.84 261.064 225.65 261.219C225.46 261.374 225.305 261.567 225.195 261.785C225.085 262.004 225.022 262.243 225.011 262.488C224.922 263.525 225.679 264.562 226.411 265.211C227.143 265.86 229.096 266.528 229.592 266.693L229.478 267.616C229.299 269.092 229.128 270.568 228.918 272.012C228.848 272.521 228.752 273.017 228.663 273.513C228.663 273.183 228.663 272.877 228.663 272.877C228.498 271.605 227.391 269.149 225.953 268.882C225.711 268.844 225.464 268.858 225.227 268.922C224.991 268.986 224.771 269.099 224.581 269.254C224.391 269.409 224.236 269.602 224.126 269.82C224.016 270.039 223.954 270.279 223.942 270.523C223.859 271.56 224.61 272.597 225.342 273.246C226.297 273.888 227.347 274.377 228.453 274.697C228.345 275.206 228.237 275.715 228.11 276.198C228.021 276.529 227.951 276.834 227.836 277.184C227.721 277.534 227.626 277.82 227.524 278.151C227.302 278.756 227.079 279.385 226.85 279.977C226.691 280.384 226.532 280.772 226.373 281.167C226.455 280.658 226.589 279.665 226.595 279.583C226.578 278.427 226.265 277.294 225.685 276.293C225.695 276.164 225.695 276.035 225.685 275.905C225.655 275.663 225.573 275.43 225.446 275.221C225.319 275.012 225.15 274.832 224.949 274.693C224.748 274.553 224.52 274.458 224.279 274.413C224.039 274.367 223.792 274.373 223.554 274.429C222.129 274.805 221.225 277.305 221.162 278.616C221.162 278.692 221.206 279.538 221.251 280.073C221.174 279.761 221.111 279.436 221.034 279.144C220.882 278.507 220.716 277.871 220.538 277.235C220.443 276.917 220.341 276.599 220.246 276.262C220.15 275.925 220.016 275.626 219.902 275.269C219.616 274.499 219.297 273.73 218.954 272.966C219.507 272.839 221.454 272.33 222.237 271.738C223.02 271.147 223.84 270.161 223.834 269.124C223.841 268.876 223.796 268.63 223.701 268.402C223.606 268.174 223.464 267.968 223.283 267.799C223.103 267.63 222.888 267.501 222.654 267.421C222.42 267.341 222.171 267.312 221.925 267.336C220.462 267.495 219.189 269.83 218.928 271.115C218.928 271.198 218.82 272.146 218.788 272.661C218.579 272.209 218.369 271.745 218.152 271.293C217.516 269.976 216.791 268.659 216.097 267.349C215.881 266.941 215.677 266.541 215.461 266.14C215.652 266.089 218.006 265.555 218.865 264.867C219.641 264.269 220.468 263.29 220.462 262.253C220.469 262.005 220.424 261.759 220.329 261.531C220.234 261.303 220.092 261.097 219.911 260.928C219.731 260.759 219.516 260.63 219.282 260.55C219.048 260.47 218.799 260.441 218.553 260.465C217.09 260.624 215.817 262.959 215.55 264.244C215.55 264.339 215.41 265.701 215.397 266.051C214.933 265.16 214.481 264.276 214.074 263.379C213.515 262.175 213.035 260.936 212.636 259.67C212.725 259.67 215.181 259.091 216.059 258.397C216.842 257.799 217.662 256.82 217.656 255.783C217.663 255.535 217.618 255.289 217.523 255.061C217.428 254.833 217.286 254.627 217.105 254.458C216.925 254.289 216.71 254.16 216.476 254.08C216.242 254 215.993 253.971 215.747 253.995C214.284 254.154 213.011 256.489 212.75 257.774C212.75 257.876 212.598 259.345 212.591 259.606C212.591 259.536 212.534 259.46 212.515 259.39C212.151 258.108 211.902 256.797 211.771 255.471C211.688 254.739 211.65 254.033 211.631 253.346C212.095 253.289 214.214 253.009 215.086 252.481C215.957 251.953 216.861 251.087 216.962 250.05C216.997 249.808 216.979 249.561 216.911 249.326C216.843 249.091 216.727 248.873 216.569 248.687C216.411 248.5 216.215 248.348 215.995 248.242C215.774 248.137 215.534 248.078 215.289 248.072C213.813 248.072 212.299 250.248 211.892 251.501C211.892 251.571 211.72 252.283 211.624 252.805C211.624 252.5 211.624 252.169 211.624 251.883C211.624 250.769 211.701 249.751 211.771 248.848C211.809 248.333 211.86 247.868 211.911 247.436C212.337 247.143 214.042 245.941 214.564 245.082C215.086 244.223 215.499 243.033 215.117 242.066C215.035 241.836 214.904 241.625 214.735 241.448C214.566 241.271 214.361 241.131 214.134 241.038C213.907 240.945 213.664 240.901 213.419 240.908C213.174 240.915 212.933 240.974 212.712 241.08C211.408 241.754 211.064 244.388 211.281 245.686C211.281 245.801 211.79 247.518 211.815 247.506C211.758 247.919 211.701 248.364 211.65 248.854C211.561 249.758 211.465 250.763 211.44 251.895C211.396 253.101 211.424 254.307 211.522 255.509C211.626 256.856 211.852 258.191 212.197 259.498C212.195 259.513 212.195 259.528 212.197 259.542C211.961 259.18 211.281 258.181 211.223 258.111C210.358 257.119 208.112 255.7 206.77 256.272C206.547 256.375 206.349 256.524 206.188 256.708C206.027 256.892 205.906 257.108 205.833 257.342C205.761 257.576 205.738 257.822 205.767 258.065C205.795 258.309 205.875 258.543 206 258.754C206.439 259.581 207.641 260.032 208.615 260.172Z" fill="#263238"/>
<path d="M233.874 253.25C233.874 253.25 234.338 251.533 234.358 251.425C234.536 250.152 234.122 247.493 232.799 246.857C232.576 246.756 232.334 246.704 232.089 246.703C231.844 246.702 231.602 246.753 231.378 246.852C231.154 246.951 230.954 247.096 230.789 247.278C230.625 247.46 230.501 247.674 230.426 247.906C230.069 248.88 230.521 250.082 231.062 250.903C231.679 251.876 233.868 253.25 233.874 253.25Z" fill="#263238"/>
<path d="M178.755 259.161C179.625 259.389 180.523 259.487 181.421 259.453C181.421 259.453 181.014 258.213 180.982 258.143C180.569 257.271 179.252 255.84 178.183 255.98C178.005 256.008 177.836 256.074 177.685 256.172C177.535 256.271 177.407 256.4 177.31 256.551C177.214 256.703 177.15 256.873 177.124 257.051C177.098 257.229 177.109 257.41 177.158 257.583C177.296 257.945 177.509 258.274 177.785 258.546C178.061 258.818 178.392 259.028 178.755 259.161V259.161Z" fill="#263238"/>
<path d="M179.411 264.638C180.3 264.631 181.184 264.492 182.032 264.225C182.31 265.192 182.652 266.14 183.056 267.062C183.294 267.597 183.542 268.131 183.801 268.666C183.648 268.436 183.508 268.239 183.483 268.214C182.847 267.482 181.211 266.445 180.219 266.871C180.056 266.946 179.911 267.053 179.793 267.187C179.675 267.321 179.586 267.478 179.533 267.649C179.479 267.819 179.462 267.999 179.483 268.176C179.504 268.354 179.561 268.525 179.653 268.678C179.878 268.993 180.169 269.255 180.507 269.446C180.844 269.636 181.22 269.75 181.606 269.779C182.469 269.782 183.328 269.651 184.151 269.391L184.456 270.027C184.946 271 185.436 271.936 185.888 272.934C186.047 273.272 186.193 273.615 186.34 273.959C186.206 273.755 186.085 273.59 186.066 273.564C185.43 272.839 183.788 271.802 182.802 272.222C182.639 272.296 182.493 272.404 182.374 272.538C182.255 272.672 182.166 272.83 182.113 273.002C182.059 273.173 182.042 273.353 182.064 273.531C182.085 273.71 182.143 273.881 182.236 274.035C182.462 274.349 182.754 274.611 183.091 274.801C183.428 274.991 183.803 275.105 184.189 275.136C185.031 275.141 185.868 275.014 186.67 274.76C186.81 275.117 186.95 275.466 187.071 275.816C187.148 276.058 187.237 276.281 187.3 276.529C187.364 276.777 187.434 277.006 187.498 277.248C187.612 277.706 187.727 278.183 187.822 278.635C187.892 278.946 187.956 279.271 188.013 279.551C187.86 279.207 187.542 278.546 187.51 278.495C186.995 277.68 185.525 276.408 184.482 276.675C184.309 276.724 184.149 276.808 184.011 276.923C183.874 277.038 183.762 277.18 183.683 277.341C183.605 277.502 183.561 277.678 183.555 277.857C183.549 278.036 183.581 278.214 183.648 278.38C183.825 278.725 184.075 279.027 184.381 279.265C184.686 279.504 185.04 279.673 185.417 279.761C186.292 279.895 187.182 279.895 188.057 279.761C188.159 280.263 188.255 280.753 188.331 281.211C188.509 282.229 188.649 283.12 188.751 283.921H189.451C189.33 283.12 189.165 282.166 188.955 281.097C188.853 280.588 188.738 280.047 188.611 279.487C189.116 279.286 189.609 279.054 190.087 278.794C190.735 279.352 191.456 279.819 192.231 280.181C192.04 280.651 191.85 281.116 191.665 281.542C191.271 282.439 190.901 283.241 190.571 283.921H191.36C191.646 283.285 191.951 282.579 192.276 281.79C192.473 281.313 192.677 280.798 192.874 280.263C193.738 280.467 194.629 280.535 195.514 280.467C195.899 280.403 196.265 280.256 196.587 280.037C196.909 279.817 197.179 279.53 197.379 279.195C197.458 279.034 197.503 278.858 197.51 278.679C197.518 278.5 197.487 278.322 197.42 278.155C197.353 277.989 197.252 277.839 197.123 277.714C196.995 277.589 196.841 277.493 196.672 277.432C195.648 277.089 194.089 278.247 193.491 279.023C193.459 279.067 193.147 279.602 192.957 279.945C193.039 279.729 193.122 279.519 193.205 279.309C193.364 278.87 193.517 278.418 193.676 277.935C193.746 277.699 193.822 277.464 193.892 277.222C193.962 276.981 194.019 276.726 194.083 276.478C194.223 275.893 194.337 275.295 194.433 274.69C195.232 275.007 196.075 275.2 196.933 275.263C197.321 275.263 197.704 275.178 198.056 275.014C198.408 274.851 198.72 274.612 198.969 274.315C199.073 274.168 199.144 274.001 199.178 273.825C199.213 273.649 199.209 273.467 199.168 273.292C199.127 273.117 199.05 272.953 198.941 272.81C198.832 272.667 198.694 272.549 198.537 272.464C197.582 271.974 195.864 272.883 195.183 273.558C195.139 273.602 194.706 274.143 194.471 274.449C194.528 274.086 194.585 273.723 194.63 273.348C194.764 272.279 194.865 271.198 194.974 270.116C195.005 269.779 195.037 269.448 195.075 269.124C195.901 269.453 196.772 269.657 197.658 269.728C198.047 269.725 198.43 269.638 198.781 269.474C199.132 269.309 199.444 269.07 199.695 268.774C199.797 268.627 199.867 268.461 199.901 268.285C199.935 268.109 199.931 267.929 199.89 267.755C199.849 267.58 199.772 267.417 199.664 267.275C199.556 267.132 199.419 267.014 199.262 266.929C198.307 266.432 196.59 267.342 195.909 268.023C195.852 268.074 195.228 268.856 195.082 269.06C195.158 268.335 195.241 267.609 195.355 266.897C195.506 265.934 195.718 264.982 195.992 264.047C196.822 264.388 197.699 264.602 198.594 264.683C198.981 264.681 199.363 264.594 199.714 264.43C200.064 264.265 200.375 264.026 200.623 263.729C200.727 263.582 200.799 263.416 200.834 263.24C200.868 263.064 200.866 262.882 200.825 262.707C200.785 262.533 200.708 262.368 200.6 262.225C200.492 262.082 200.354 261.964 200.197 261.877C199.236 261.387 197.519 262.297 196.838 262.978C196.787 263.029 196.112 263.869 196.004 264.028C196.004 263.977 196.004 263.919 196.049 263.862C196.342 262.933 196.719 262.032 197.175 261.171C197.417 260.694 197.678 260.249 197.945 259.822C198.717 260.234 199.547 260.526 200.407 260.688C200.793 260.727 201.182 260.682 201.549 260.557C201.916 260.432 202.251 260.229 202.532 259.962C202.655 259.828 202.747 259.668 202.803 259.495C202.859 259.322 202.877 259.138 202.856 258.957C202.835 258.776 202.775 258.602 202.681 258.446C202.587 258.29 202.46 258.156 202.31 258.054C201.406 257.456 199.599 258.175 198.848 258.773C198.81 258.804 198.428 259.18 198.155 259.46C198.276 259.269 198.403 259.072 198.524 258.894C198.976 258.213 199.427 257.621 199.834 257.093L200.471 256.291C201.333 256.3 202.191 256.178 203.016 255.929C203.378 255.789 203.704 255.571 203.973 255.291C204.241 255.01 204.444 254.674 204.568 254.307C204.612 254.133 204.618 253.952 204.588 253.776C204.557 253.599 204.489 253.432 204.388 253.283C204.288 253.135 204.158 253.009 204.006 252.915C203.853 252.821 203.683 252.759 203.506 252.735C202.43 252.621 201.158 254.09 200.763 254.968C200.763 255.045 200.337 256.298 200.363 256.298C200.159 256.533 199.943 256.781 199.726 257.055C199.313 257.57 198.842 258.156 198.371 258.83C197.862 259.55 197.393 260.298 196.965 261.069C196.505 261.923 196.12 262.815 195.813 263.735V263.767C195.813 263.455 195.813 262.571 195.813 262.494C195.686 261.54 194.884 259.771 193.828 259.574C193.651 259.545 193.47 259.554 193.297 259.6C193.123 259.646 192.961 259.729 192.822 259.841C192.683 259.954 192.569 260.096 192.488 260.256C192.407 260.416 192.361 260.591 192.352 260.77C192.368 261.158 192.468 261.537 192.645 261.882C192.822 262.227 193.071 262.529 193.377 262.768C194.123 263.255 194.938 263.628 195.794 263.875C195.493 264.833 195.257 265.811 195.088 266.801C194.986 267.38 194.897 267.959 194.821 268.551C194.821 268.277 194.821 268.029 194.821 267.998C194.694 267.043 193.892 265.268 192.836 265.077C192.658 265.048 192.476 265.057 192.303 265.104C192.129 265.15 191.967 265.233 191.827 265.347C191.688 265.46 191.574 265.602 191.493 265.763C191.413 265.924 191.367 266.1 191.36 266.28C191.373 266.667 191.472 267.047 191.649 267.393C191.826 267.738 192.077 268.04 192.384 268.277C193.105 268.755 193.895 269.119 194.725 269.359C194.725 269.582 194.668 269.811 194.643 270.033C194.509 271.115 194.388 272.196 194.229 273.252C194.178 273.621 194.108 273.99 194.045 274.353C194.045 274.111 194.045 273.908 194.045 273.876C193.924 272.922 193.122 271.147 192.059 270.949C191.882 270.922 191.701 270.931 191.528 270.978C191.355 271.025 191.194 271.108 191.055 271.222C190.917 271.335 190.803 271.477 190.723 271.637C190.643 271.797 190.597 271.973 190.59 272.152C190.605 272.539 190.705 272.919 190.882 273.263C191.059 273.608 191.309 273.911 191.614 274.15C192.314 274.617 193.083 274.974 193.892 275.206C193.809 275.581 193.733 275.95 193.637 276.306C193.574 276.548 193.523 276.79 193.44 277.025L193.211 277.738C193.046 278.183 192.887 278.641 192.715 279.074C192.6 279.373 192.486 279.653 192.371 279.939C192.428 279.57 192.524 278.845 192.53 278.781C192.525 277.939 192.306 277.111 191.894 276.376C191.907 276.281 191.907 276.185 191.894 276.09C191.872 275.912 191.813 275.741 191.72 275.588C191.628 275.435 191.504 275.303 191.357 275.201C191.209 275.098 191.042 275.029 190.866 274.995C190.69 274.962 190.509 274.967 190.335 275.008C189.298 275.288 188.636 277.114 188.586 278.075C188.586 278.132 188.617 278.749 188.649 279.144C188.598 278.915 188.547 278.692 188.49 278.463C188.382 278.005 188.261 277.547 188.127 277.051C188.057 276.822 187.987 276.58 187.911 276.338C187.835 276.096 187.746 275.855 187.663 275.613C187.459 275.047 187.218 274.487 186.969 273.927C187.812 273.753 188.624 273.451 189.374 273.03C189.695 272.814 189.965 272.532 190.167 272.203C190.369 271.873 190.498 271.505 190.545 271.121C190.55 270.942 190.518 270.764 190.449 270.598C190.38 270.432 190.277 270.283 190.147 270.16C190.017 270.037 189.862 269.942 189.692 269.883C189.523 269.824 189.343 269.802 189.165 269.817C188.096 269.932 187.16 271.637 186.969 272.578C186.969 272.642 186.893 273.329 186.868 273.711C186.715 273.38 186.562 273.043 186.397 272.705C185.92 271.745 185.404 270.797 184.895 269.823L184.431 268.939C185.301 268.756 186.139 268.445 186.919 268.017C187.24 267.802 187.512 267.521 187.714 267.191C187.916 266.862 188.044 266.492 188.089 266.108C188.094 265.929 188.062 265.752 187.993 265.586C187.925 265.421 187.823 265.272 187.693 265.149C187.564 265.026 187.409 264.932 187.241 264.872C187.072 264.813 186.893 264.789 186.715 264.804C185.64 264.918 184.711 266.623 184.52 267.565C184.52 267.641 184.412 268.634 184.405 268.888C184.068 268.252 183.737 267.616 183.438 266.935C183.026 266.054 182.673 265.147 182.382 264.219C183.259 264.036 184.104 263.723 184.889 263.29C185.212 263.076 185.484 262.795 185.686 262.465C185.888 262.135 186.016 261.765 186.06 261.381C186.066 261.201 186.034 261.022 185.965 260.856C185.897 260.689 185.794 260.539 185.664 260.415C185.533 260.292 185.378 260.197 185.208 260.137C185.039 260.078 184.858 260.055 184.679 260.07C183.61 260.191 182.681 261.896 182.484 262.838C182.484 262.914 182.376 263.983 182.369 264.18C182.353 264.124 182.334 264.069 182.312 264.015C182.047 263.076 181.866 262.116 181.771 261.146C181.708 260.611 181.682 260.096 181.663 259.6C182.539 259.518 183.397 259.303 184.208 258.964C184.552 258.785 184.854 258.534 185.091 258.228C185.329 257.921 185.496 257.567 185.582 257.189C185.608 257.011 185.595 256.83 185.545 256.657C185.495 256.485 185.41 256.325 185.294 256.188C185.178 256.051 185.034 255.94 184.872 255.862C184.71 255.785 184.534 255.743 184.354 255.738C183.279 255.738 182.166 257.328 181.873 258.245C181.873 258.296 181.746 258.817 181.676 259.205C181.676 258.976 181.676 258.741 181.676 258.525C181.676 257.71 181.727 256.966 181.778 256.304C181.809 255.929 181.848 255.585 181.886 255.274C182.58 254.795 183.2 254.216 183.725 253.556C183.948 253.239 184.099 252.878 184.169 252.496C184.238 252.115 184.223 251.723 184.125 251.348C184.066 251.179 183.972 251.024 183.849 250.894C183.725 250.763 183.576 250.661 183.41 250.592C183.244 250.524 183.066 250.491 182.886 250.496C182.707 250.502 182.531 250.545 182.369 250.623C181.415 251.119 181.16 253.047 181.32 253.995C181.32 254.078 181.695 255.337 181.714 255.324C181.676 255.63 181.631 255.961 181.593 256.317C181.529 256.953 181.459 257.723 181.44 258.544C181.412 259.424 181.433 260.306 181.504 261.184C181.582 262.17 181.746 263.147 181.994 264.104C181.994 264.104 181.994 264.104 181.994 264.136C181.822 263.869 181.326 263.137 181.281 263.086C180.645 262.361 179.004 261.324 178.011 261.744C177.848 261.818 177.702 261.925 177.583 262.06C177.464 262.194 177.375 262.352 177.322 262.523C177.268 262.695 177.251 262.875 177.273 263.053C177.294 263.231 177.353 263.403 177.445 263.557C177.674 263.869 177.969 264.128 178.308 264.315C178.648 264.501 179.024 264.612 179.411 264.638V264.638Z" fill="#263238"/>
<path d="M197.894 259.574C197.894 259.574 198.237 258.302 198.25 258.232C198.384 257.284 198.078 255.363 197.105 254.892C196.942 254.819 196.765 254.781 196.587 254.781C196.408 254.781 196.231 254.818 196.068 254.891C195.905 254.963 195.758 255.069 195.639 255.202C195.52 255.335 195.429 255.492 195.374 255.662C195.287 256.039 195.283 256.43 195.362 256.809C195.441 257.188 195.602 257.546 195.832 257.857C196.432 258.527 197.126 259.106 197.894 259.574V259.574Z" fill="#263238"/>
<path d="M232.977 37.0839C232.447 39.1772 232.582 41.3836 233.363 43.3968C234.144 45.41 235.532 47.1303 237.335 48.3191C239.138 49.5078 241.266 50.106 243.424 50.0308C245.583 49.9556 247.664 49.2106 249.38 47.8992L253.407 51.7545C253.303 52.1746 253.311 52.6144 253.429 53.0305C253.548 53.4467 253.772 53.8248 254.081 54.1276L262.83 62.6971C263.065 62.9248 263.342 63.104 263.646 63.2245C263.95 63.345 264.275 63.4044 264.602 63.3994C264.929 63.3944 265.252 63.325 265.552 63.1952C265.852 63.0654 266.124 62.8778 266.352 62.643C266.579 62.4083 266.759 62.131 266.879 61.8269C267 61.5229 267.059 61.1982 267.054 60.8712C267.049 60.5442 266.98 60.2214 266.85 59.9212C266.72 59.621 266.532 59.3494 266.298 59.1217L257.53 50.5458C257.214 50.2419 256.824 50.0266 256.398 49.9216C255.973 49.8166 255.527 49.8256 255.106 49.9478L251.167 46.156C252.118 44.9914 252.8 43.6316 253.165 42.1734C253.5 40.848 253.569 39.4697 253.371 38.1172C253.172 36.7647 252.709 35.4646 252.008 34.2911C251.307 33.1175 250.382 32.0935 249.285 31.2776C248.188 30.4616 246.942 29.8696 245.616 29.5354C244.291 29.2012 242.912 29.1314 241.56 29.3299C240.207 29.5283 238.907 29.9913 237.733 30.6922C236.559 31.3932 235.535 32.3184 234.719 33.4151C233.903 34.5117 233.311 35.7584 232.977 37.0839V37.0839ZM251.358 41.7027C250.946 43.3416 250.056 44.8214 248.803 45.9549C247.549 47.0884 245.987 47.8247 244.315 48.0706C242.643 48.3165 240.935 48.061 239.408 47.3365C237.881 46.6119 236.604 45.4508 235.737 44.0001C234.87 42.5493 234.453 40.874 234.538 39.1862C234.623 37.4983 235.207 35.8736 236.216 34.5176C237.225 33.1616 238.613 32.1353 240.205 31.5684C241.798 31.0014 243.522 30.9194 245.161 31.3327C247.357 31.8881 249.243 33.2919 250.405 35.2361C251.567 37.1803 251.909 39.5059 251.358 41.7027Z" stroke="#263238" stroke-miterlimit="10"/>
<path d="M40.5675 163.159C38.9894 163.536 37.5677 164.395 36.4995 165.616C35.4313 166.837 34.7696 168.361 34.606 169.975C34.4424 171.589 34.785 173.214 35.5864 174.625C36.3879 176.036 37.6083 177.162 39.0787 177.849L37.908 181.876C37.5917 181.952 37.3007 182.109 37.0641 182.332C36.8275 182.555 36.6534 182.837 36.5591 183.148L33.855 191.972C33.7218 192.45 33.7802 192.962 34.0178 193.398C34.2553 193.833 34.6534 194.16 35.1276 194.307C35.6058 194.44 36.1172 194.382 36.5531 194.144C36.9891 193.907 37.3153 193.509 37.4626 193.035L40.1476 184.21C40.2431 183.894 40.2522 183.558 40.1739 183.237C40.0955 182.916 39.9327 182.622 39.7022 182.385L40.8602 178.427C42.0093 178.664 43.1969 178.639 44.3351 178.355C45.4734 178.071 46.5331 177.535 47.436 176.785C48.3389 176.036 49.0619 175.094 49.5513 174.028C50.0408 172.962 50.2843 171.799 50.2637 170.626C50.2432 169.453 49.9592 168.3 49.4327 167.252C48.9063 166.203 48.1508 165.287 47.2223 164.57C46.2937 163.853 45.2158 163.354 44.0683 163.109C42.9208 162.865 41.7331 162.882 40.593 163.159H40.5675ZM43.8633 177.028C42.6268 177.322 41.3308 177.243 40.1392 176.8C38.9477 176.358 37.9142 175.572 37.1694 174.542C36.4246 173.512 36.0019 172.284 35.9549 171.014C35.9078 169.744 36.2385 168.489 36.9051 167.407C37.5717 166.325 38.5443 165.464 39.6998 164.935C40.8553 164.406 42.1419 164.231 43.3969 164.433C44.6518 164.634 45.8187 165.204 46.75 166.069C47.6813 166.934 48.3351 168.055 48.6289 169.292C49.0217 170.946 48.7436 172.688 47.8553 174.138C46.9671 175.587 45.541 176.627 43.8888 177.028H43.8633Z" stroke="#263238" stroke-miterlimit="10"/>
<path d="M252.694 104.527H234.243C233.045 104.527 231.896 105.003 231.049 105.85C230.202 106.697 229.726 107.846 229.726 109.044V119.255C229.726 120.453 230.202 121.602 231.049 122.449C231.896 123.296 233.045 123.772 234.243 123.772H247.095L246.459 130.134L252.44 123.772H252.694C253.288 123.772 253.875 123.655 254.423 123.428C254.971 123.201 255.469 122.868 255.889 122.449C256.308 122.029 256.641 121.532 256.868 120.983C257.095 120.435 257.212 119.848 257.212 119.255V109.044C257.212 108.451 257.095 107.863 256.868 107.315C256.641 106.767 256.308 106.269 255.889 105.85C255.469 105.431 254.971 105.098 254.423 104.871C253.875 104.644 253.288 104.527 252.694 104.527V104.527Z" stroke="#263238" stroke-miterlimit="10"/>
<path d="M41.9037 128.702H54.406C54.8079 128.702 55.2059 128.782 55.5772 128.935C55.9485 129.089 56.2859 129.315 56.5701 129.599C56.8542 129.883 57.0797 130.22 57.2335 130.591C57.3873 130.963 57.4664 131.361 57.4664 131.763V138.678C57.4664 139.08 57.3873 139.478 57.2335 139.849C57.0797 140.22 56.8542 140.558 56.5701 140.842C56.2859 141.126 55.9485 141.351 55.5772 141.505C55.2059 141.659 54.8079 141.738 54.406 141.738H45.7021L46.1538 146.039L42.0754 141.738H41.9037C41.092 141.738 40.3136 141.416 39.7396 140.842C39.1657 140.268 38.8433 139.49 38.8433 138.678V131.763C38.8433 130.951 39.1657 130.173 39.7396 129.599C40.3136 129.025 41.092 128.702 41.9037 128.702Z" stroke="#263238" stroke-miterlimit="10"/>
<path d="M134.319 12.1259H146.822C147.634 12.1259 148.412 12.4483 148.986 13.0222C149.56 13.596 149.882 14.3744 149.882 15.186V22.1014C149.882 22.913 149.56 23.6914 148.986 24.2653C148.412 24.8391 147.634 25.1615 146.822 25.1615H138.118L138.57 29.4622L134.491 25.1615H134.319C133.508 25.1615 132.729 24.8391 132.155 24.2653C131.582 23.6914 131.259 22.913 131.259 22.1014V15.186C131.259 14.3744 131.582 13.596 132.155 13.0222C132.729 12.4483 133.508 12.1259 134.319 12.1259V12.1259Z" stroke="#263238" stroke-miterlimit="10"/>
<path d="M117.332 26.1731L147.923 111.652L213.616 27.5218" stroke="#263238" stroke-miterlimit="10"/>
<path d="M239.708 81.9611L147.923 111.652L209.563 180.934" stroke="#263238" stroke-miterlimit="10"/>
<path d="M77.2857 178.237L147.923 111.652L51.6383 95.4548" stroke="#263238" stroke-miterlimit="10"/>
<path d="M247.563 86.5422C249.946 81.9911 248.187 76.3705 243.636 73.9882C239.084 71.6059 233.463 73.3641 231.081 77.9152C228.698 82.4663 230.457 88.0869 235.008 90.4692C239.56 92.8514 245.181 91.0933 247.563 86.5422Z" fill="#263238" stroke="#263238" stroke-width="0.5" stroke-miterlimit="10"/>
<path d="M242.4 81.5858H236.336C235.768 81.5858 235.222 81.8116 234.82 82.2137C234.418 82.6158 234.192 83.1611 234.192 83.7297V88.8193C235.674 89.9755 237.503 90.5965 239.383 90.5815C241.262 90.5665 243.081 89.9163 244.544 88.7366V83.7297C244.544 83.1611 244.318 82.6158 243.916 82.2137C243.514 81.8116 242.969 81.5858 242.4 81.5858Z" fill="#BEBBDE" stroke="#263238" stroke-miterlimit="10"/>
<path d="M239.263 80.6505C239.873 80.6505 240.47 80.4696 240.978 80.1305C241.485 79.7915 241.881 79.3096 242.114 78.7458C242.348 78.182 242.409 77.5616 242.29 76.963C242.171 76.3645 241.877 75.8147 241.445 75.3832C241.014 74.9516 240.464 74.6578 239.865 74.5387C239.267 74.4197 238.646 74.4808 238.082 74.7143C237.518 74.9478 237.036 75.3433 236.697 75.8507C236.358 76.3582 236.177 76.9547 236.177 77.565C236.177 78.3833 236.502 79.1681 237.081 79.7468C237.66 80.3254 238.445 80.6505 239.263 80.6505Z" fill="#BEBBDE" stroke="#263238" stroke-miterlimit="10"/>
<path d="M219.088 181.221C221.072 176.482 218.838 171.033 214.099 169.05C209.36 167.067 203.91 169.3 201.927 174.039C199.943 178.778 202.177 184.227 206.916 186.21C211.655 188.193 217.105 185.959 219.088 181.221Z" fill="#263238" stroke="#263238" stroke-width="0.5" stroke-miterlimit="10"/>
<path d="M213.628 177.015H207.565C207.284 177.014 207.005 177.069 206.745 177.176C206.485 177.283 206.248 177.44 206.049 177.639C205.85 177.838 205.692 178.073 205.584 178.333C205.476 178.593 205.421 178.871 205.421 179.153V184.242C206.903 185.398 208.732 186.02 210.611 186.005C212.491 185.989 214.31 185.339 215.773 184.16V179.153C215.773 178.871 215.717 178.593 215.609 178.333C215.501 178.073 215.343 177.838 215.144 177.639C214.945 177.44 214.709 177.283 214.449 177.176C214.188 177.069 213.91 177.014 213.628 177.015V177.015Z" fill="#BEBBDE" stroke="#263238" stroke-miterlimit="10"/>
<path d="M210.447 176.074C211.058 176.074 211.654 175.893 212.162 175.554C212.669 175.214 213.065 174.733 213.298 174.169C213.532 173.605 213.593 172.985 213.474 172.386C213.355 171.787 213.061 171.238 212.629 170.806C212.198 170.375 211.648 170.081 211.049 169.962C210.451 169.843 209.83 169.904 209.266 170.137C208.702 170.371 208.221 170.766 207.881 171.274C207.542 171.781 207.361 172.378 207.361 172.988C207.361 173.393 207.441 173.794 207.596 174.169C207.751 174.543 207.979 174.883 208.265 175.17C208.552 175.456 208.892 175.684 209.266 175.839C209.641 175.994 210.042 176.074 210.447 176.074V176.074Z" fill="#BEBBDE" stroke="#263238" stroke-miterlimit="10"/>
<path d="M116.931 32.1788C120.578 32.1788 123.535 29.2222 123.535 25.5751C123.535 21.9279 120.578 18.9713 116.931 18.9713C113.283 18.9713 110.326 21.9279 110.326 25.5751C110.326 29.2222 113.283 32.1788 116.931 32.1788Z" fill="#263238" stroke="#263238" stroke-width="0.5" stroke-miterlimit="10"/>
<path d="M119.119 25.1615H114.818C114.415 25.1615 114.028 25.3217 113.743 25.6069C113.458 25.892 113.298 26.2788 113.298 26.682V30.2511C114.35 31.0686 115.647 31.5076 116.979 31.4972C118.311 31.4868 119.601 31.0276 120.64 30.1938V26.6502C120.632 26.2525 120.468 25.8739 120.184 25.5956C119.899 25.3173 119.517 25.1614 119.119 25.1615V25.1615Z" fill="#BEBBDE" stroke="#263238" stroke-miterlimit="10"/>
<path d="M116.918 24.4617C117.351 24.4617 117.774 24.3334 118.134 24.0929C118.494 23.8524 118.774 23.5106 118.94 23.1107C119.106 22.7108 119.149 22.2708 119.065 21.8462C118.98 21.4217 118.772 21.0318 118.466 20.7257C118.159 20.4196 117.769 20.2112 117.345 20.1267C116.92 20.0423 116.48 20.0856 116.08 20.2513C115.68 20.4169 115.339 20.6974 115.098 21.0573C114.858 21.4172 114.729 21.8404 114.729 22.2732C114.729 22.8536 114.96 23.4103 115.37 23.8207C115.781 24.2311 116.337 24.4617 116.918 24.4617Z" fill="#BEBBDE" stroke="#263238" stroke-miterlimit="10"/>
<path d="M82.3675 179.7C83.7722 176.334 82.1821 172.467 78.8159 171.063C75.4498 169.658 71.5823 171.248 70.1776 174.614C68.773 177.98 70.3631 181.847 73.7293 183.252C77.0954 184.656 80.9629 183.066 82.3675 179.7Z" fill="#263238" stroke="#263238" stroke-width="0.5" stroke-miterlimit="10"/>
<path d="M78.4628 176.71H74.1617C73.961 176.709 73.762 176.748 73.5764 176.824C73.3907 176.901 73.222 177.013 73.0801 177.155C72.9381 177.297 72.8257 177.466 72.7492 177.651C72.6728 177.837 72.6339 178.036 72.6347 178.237V181.844C73.6858 182.666 74.9845 183.108 76.3191 183.098C77.6536 183.087 78.9453 182.625 79.9834 181.787V178.237C79.9843 178.036 79.9456 177.838 79.8695 177.653C79.7935 177.468 79.6816 177.299 79.5403 177.157C79.399 177.015 79.2311 176.903 79.0462 176.826C78.8613 176.749 78.663 176.71 78.4628 176.71V176.71Z" fill="#BEBBDE" stroke="#263238" stroke-miterlimit="10"/>
<path d="M76.2359 176.042C76.6688 176.042 77.0919 175.913 77.4519 175.673C77.8118 175.432 78.0923 175.091 78.258 174.691C78.4237 174.291 78.467 173.851 78.3826 173.426C78.2981 173.002 78.0896 172.612 77.7835 172.306C77.4775 172 77.0875 171.791 76.6629 171.707C76.2383 171.622 75.7983 171.666 75.3983 171.831C74.9984 171.997 74.6565 172.277 74.416 172.637C74.1755 172.997 74.0472 173.42 74.0472 173.853C74.0472 174.434 74.2778 174.99 74.6882 175.401C75.0987 175.811 75.6554 176.042 76.2359 176.042Z" fill="#BEBBDE" stroke="#263238" stroke-miterlimit="10"/>
<path d="M219.642 27.4957C220.97 24.0991 219.294 20.2687 215.897 18.9403C212.5 17.612 208.669 19.2886 207.34 22.6852C206.012 26.0818 207.689 29.9122 211.086 31.2405C214.483 32.5689 218.313 30.8923 219.642 27.4957Z" fill="#263238" stroke="#263238" stroke-width="0.5" stroke-miterlimit="10"/>
<path d="M215.696 24.6462H211.389C211.189 24.6462 210.991 24.6855 210.807 24.762C210.622 24.8384 210.455 24.9504 210.314 25.0916C210.172 25.2327 210.06 25.4004 209.984 25.5848C209.908 25.7693 209.868 25.967 209.868 26.1667V29.7803C210.921 30.5983 212.219 31.0376 213.553 31.0272C214.886 31.0168 216.177 30.5574 217.217 29.7231V26.1667C217.217 25.967 217.178 25.7693 217.101 25.5848C217.025 25.4004 216.913 25.2327 216.772 25.0916C216.63 24.9504 216.463 24.8384 216.278 24.762C216.094 24.6855 215.896 24.6462 215.696 24.6462V24.6462Z" fill="#BEBBDE" stroke="#263238" stroke-miterlimit="10"/>
<path d="M213.469 23.9782C213.902 23.9782 214.325 23.8499 214.685 23.6094C215.045 23.3689 215.326 23.0271 215.492 22.6272C215.657 22.2273 215.701 21.7873 215.616 21.3628C215.532 20.9382 215.323 20.5483 215.017 20.2422C214.711 19.9361 214.321 19.7277 213.896 19.6432C213.472 19.5588 213.032 19.6021 212.632 19.7678C212.232 19.9334 211.89 20.2139 211.65 20.5738C211.409 20.9337 211.281 21.3569 211.281 21.7897C211.281 22.3701 211.511 22.9268 211.922 23.3372C212.332 23.7476 212.889 23.9782 213.469 23.9782Z" fill="#BEBBDE" stroke="#263238" stroke-miterlimit="10"/>
<path d="M61.9339 98.5638C64.5229 92.4293 61.6483 85.3578 55.5133 82.769C49.3783 80.1803 42.3062 83.0546 39.7172 89.189C37.1282 95.3235 40.0028 102.395 46.1378 104.984C52.2727 107.573 59.3449 104.698 61.9339 98.5638Z" fill="#263238" stroke="#263238" stroke-width="0.5" stroke-miterlimit="10"/>
<path d="M54.826 93.0627H46.9682C46.2319 93.0627 45.5257 93.3548 45.0044 93.8748C44.4832 94.3948 44.1895 95.1003 44.1878 95.8365V102.428C46.1088 103.922 48.4778 104.725 50.9116 104.706C53.3454 104.688 55.7019 103.849 57.6 102.326V95.8365C57.6 95.1009 57.3078 94.3953 56.7875 93.8752C56.2673 93.355 55.5617 93.0627 54.826 93.0627V93.0627Z" fill="#BEBBDE" stroke="#263238" stroke-miterlimit="10"/>
<path d="M50.7476 91.8412C51.5378 91.8412 52.3104 91.6069 52.9675 91.1679C53.6245 90.7289 54.1367 90.1049 54.4391 89.3748C54.7415 88.6448 54.8206 87.8415 54.6665 87.0665C54.5123 86.2914 54.1317 85.5795 53.5729 85.0208C53.0141 84.462 52.3022 84.0815 51.5271 83.9274C50.752 83.7732 49.9486 83.8523 49.2185 84.1547C48.4884 84.4571 47.8644 84.9692 47.4253 85.6262C46.9863 86.2832 46.7519 87.0557 46.7519 87.8459C46.7519 88.9055 47.1729 89.9217 47.9222 90.671C48.6715 91.4203 49.6879 91.8412 50.7476 91.8412V91.8412Z" fill="#BEBBDE" stroke="#263238" stroke-miterlimit="10"/>
<path d="M90.049 45.927C90.049 45.8888 90.049 45.8506 90.049 45.8125C89.8686 44.1615 89.2181 42.5969 88.1749 41.3046C87.1317 40.0122 85.7395 39.0464 84.1636 38.5217C82.5643 37.9789 80.8375 37.9367 79.2136 38.4008C79.573 37.1799 79.6961 35.9016 79.5762 34.6345C79.3399 32.1007 78.1489 29.7515 76.2447 28.0632C74.3404 26.3749 71.8653 25.4738 69.3212 25.5426C66.7771 25.6114 64.3543 26.6449 62.544 28.4336C60.7338 30.2223 59.6714 32.6324 59.5724 35.1753C59.4261 35.1753 59.2797 35.1753 59.1334 35.1753C56.4723 35.1753 53.9202 36.2323 52.0385 38.1138C50.1568 39.9953 49.0997 42.5472 49.0997 45.2081C49.0972 46.1066 49.2171 47.0012 49.456 47.8674C49.7927 49.0306 50.5 50.0522 51.4704 50.7768C52.4408 51.5013 53.6212 51.8893 54.8323 51.8818H84.469C85.235 51.8854 85.9935 51.7309 86.6971 51.428C87.4006 51.125 88.0341 50.6802 88.5579 50.1213C89.0816 49.5623 89.4844 48.9013 89.7409 48.1796C89.9975 47.4579 90.1024 46.6911 90.049 45.927V45.927Z" stroke="#263238" stroke-miterlimit="10"/>
<path d="M242.26 147.763C242.257 147.742 242.257 147.72 242.26 147.699C242.163 146.806 241.812 145.96 241.248 145.26C240.684 144.561 239.931 144.039 239.079 143.755C238.215 143.461 237.283 143.438 236.406 143.691C236.603 143.032 236.673 142.341 236.61 141.655C236.516 140.26 235.886 138.956 234.852 138.015C233.817 137.074 232.459 136.57 231.061 136.607C229.663 136.645 228.334 137.222 227.353 138.218C226.371 139.213 225.812 140.55 225.794 141.948H225.558C224.122 141.95 222.744 142.522 221.729 143.538C220.714 144.554 220.144 145.932 220.144 147.368C220.145 147.852 220.209 148.333 220.335 148.8C220.515 149.429 220.896 149.982 221.42 150.375C221.943 150.768 222.581 150.979 223.236 150.976H239.231C239.646 150.98 240.057 150.899 240.439 150.736C240.821 150.574 241.165 150.335 241.449 150.033C241.734 149.731 241.953 149.373 242.092 148.983C242.232 148.592 242.289 148.177 242.26 147.763V147.763Z" stroke="#263238" stroke-miterlimit="10"/>
<path d="M101.584 196.788C101.584 196.788 101.584 196.75 101.584 196.731C101.488 195.837 101.137 194.991 100.573 194.291C100.009 193.592 99.2558 193.069 98.403 192.786C97.5397 192.492 96.607 192.47 95.7307 192.723C95.9257 192.063 95.9926 191.372 95.9279 190.687C95.7918 189.372 95.1838 188.15 94.2165 187.248C93.2491 186.347 91.9879 185.826 90.6661 185.782C89.2456 185.747 87.8685 186.273 86.8327 187.246C85.7969 188.219 85.1855 189.56 85.1307 190.98H84.8953C84.1832 190.979 83.4779 191.118 82.8198 191.391C82.1618 191.663 81.5638 192.062 81.0603 192.565C80.5568 193.069 80.1575 193.667 79.8854 194.325C79.6132 194.983 79.4736 195.688 79.4744 196.4C79.4748 196.884 79.5412 197.365 79.6717 197.831C79.8501 198.462 80.2306 199.016 80.7548 199.409C81.279 199.802 81.9178 200.012 82.573 200.007H98.562C98.9769 200.011 99.388 199.929 99.7695 199.766C100.151 199.603 100.495 199.362 100.778 199.06C101.062 198.757 101.281 198.399 101.419 198.008C101.558 197.617 101.614 197.202 101.584 196.788V196.788Z" stroke="#263238" stroke-miterlimit="10"/>
<path d="M192.632 31.0718C192.635 31.0529 192.635 31.0335 192.632 31.0146C192.538 30.1207 192.187 29.273 191.623 28.5734C191.059 27.8737 190.305 27.3517 189.451 27.0701C188.588 26.7738 187.655 26.7493 186.779 27.0002C186.977 26.3431 187.044 25.6536 186.976 24.9707C186.882 23.5757 186.252 22.2711 185.217 21.3302C184.183 20.3892 182.825 19.8849 181.427 19.9227C180.029 19.9605 178.7 20.5376 177.718 21.5331C176.737 22.5286 176.178 23.8653 176.159 25.2633H175.924C175.091 25.2654 174.269 25.4592 173.523 25.8297C172.777 26.2003 172.126 26.7376 171.621 27.4002C171.116 28.0627 170.77 28.8326 170.611 29.6503C170.451 30.4679 170.482 31.3113 170.7 32.1152C170.881 32.7445 171.262 33.2977 171.786 33.6904C172.309 34.0832 172.947 34.2941 173.602 34.291H189.597C190.013 34.2974 190.426 34.2171 190.81 34.0552C191.193 33.8932 191.539 33.6531 191.824 33.3503C192.11 33.0474 192.329 32.6884 192.468 32.2961C192.607 31.9038 192.663 31.4869 192.632 31.0718V31.0718Z" stroke="#263238" stroke-miterlimit="10"/>
<path d="M196.382 158.8C223.383 131.801 223.383 88.0266 196.382 61.0275C169.38 34.0285 125.602 34.0285 98.6007 61.0275C71.5992 88.0266 71.5992 131.801 98.6007 158.8C125.602 185.799 169.38 185.799 196.382 158.8Z" fill="white" stroke="#263238" stroke-miterlimit="10"/>
<path d="M145.002 77.9085L151.568 80.8605L153.369 83.8124L156.327 84.964L156.652 88.0813L155.507 89.8818L153.21 90.378L148.285 88.4058V87.7696L151.072 86.6181L150.092 83.1763L145.638 81.5349L143.672 78.9074L145.002 77.9085ZM186.359 153.711L181.11 151.58L174.709 149.283H169.619L164.86 148.297L159.604 149.442L156.652 149.608H154.851L151.403 151.58L148.094 152.891L143.641 150.104L144.786 145.504L141.999 144.359H138.716L138.226 142.883L138.551 139.925L137.405 138.29L135.108 138.614L134.472 140.256L131.685 140.421L129.223 137.469L128.237 133.531L130.699 128.931L135.458 129.262L136.775 130.414H138.741L141.204 128.931L143.335 129.568L146.287 134.657L147.439 134.492L147.108 130.719L146.186 128.772L146.51 125.655L152.58 123.028L153.401 116.958L156.028 114.821L158.16 111.048L159.801 110.724L163.574 108.261L163.74 106.951L161.118 107.11L160.622 105.799H158.822L156.028 106.436L157.339 104.304L163.065 102.663L164.376 101.187L166.673 104.794L168.155 106.27L170.452 105.634L169.466 103.503L166.018 101.041L162.079 96.5873L157.982 93.7944L154.043 93.1582L152.071 91.1923L149.443 90.5561L149.119 91.1923L148.788 95.9511L149.424 97.5861L147.948 102.841L144.678 100.233L145.168 97.936L141.732 96.2819L140.243 94.5069L141.064 90.4098L145.823 86.9616L146.154 83.0236L144.347 83.189L143.195 81.713L142.705 79.2509L141.554 79.0855L140.917 81.713L139.117 82.0375L138.296 76.3117L136.96 75.421L134.663 74.4349L132.042 75.7455L135.318 78.8628L135.955 81.6557L130.044 77.2024L125.94 72.749L125.616 68.2956L121.372 67.0741L118.089 69.2117C117.298 69.6907 116.482 70.1281 115.645 70.5223C114.35 70.8311 113.034 71.0437 111.707 71.1585L111.071 73.9514L107.298 74.1105L107.629 75.9173L113.698 76.9034L116.816 80.3452V86.0709L115.009 91.1605L115.34 96.5745L110.746 104.61L109.76 116.589L111.192 123.517L113.323 128.772L115.785 129.097L114.965 126.476L113.654 124.504L112.833 120.896L114.309 120.565L116.606 126.476L118.248 131.724V135.987L121.365 139.766L126.945 143.863L135.477 146.166L138.105 148.622L140.071 151.249L143.03 153.056L146.637 154.036L150.245 153.877C150.245 153.877 150.086 155.518 150.086 156.339C150.086 157.159 147.789 159.946 147.789 159.946L145.988 163.216L147.299 166.823L150.913 168.299L156.003 173.554L158.3 174.534V176.996L158.586 178.141C171.349 176.079 183.273 170.466 192.995 161.944L193.084 160.754L197.538 152.712L195.406 151.236L186.359 153.711ZM203.448 88.902L201.641 85.7783L199.345 82.1711L198.708 77.2469L201.661 77.7431L201.826 76.1018L199.688 75.9363L201.495 75.1156L203.467 73.9705V72.3291L201.495 69.7016L201.075 66.1707C191.539 54.5016 178.453 46.2664 163.806 42.7178C149.159 39.1693 133.754 40.5017 119.934 46.5123L123.713 49.1907L121.372 52.1426L118.254 52.7788L117.93 57.2322L116.613 57.7221L114.971 59.5161L115.136 62.4681L117.93 62.7989L116.778 65.5854H119.571L124.324 59.5161L124.82 56.8886L129.414 56.5642L130.559 54.592L135.318 54.1021L135.815 51.3092L139.257 51.1501C139.257 51.1501 141.719 49.8332 142.215 49.8332C143.163 50.0391 144.094 50.3133 145.002 50.6539L147.464 52.6261H150.913L153.865 50.8193L157.638 51.1501C158.181 51.5031 158.801 51.7212 159.445 51.7863C160.266 51.7863 162.728 50.6348 162.728 50.6348L167.481 53.5868L169.453 55.0691V57.5248L171.916 57.8557L172.736 56.3797L174.868 57.3658L174.702 58.6763L169.784 59.9869L172.571 63.6005L178.475 66.8833L180.938 70.1597L184.552 70.4905L185.372 68.8491L186.683 68.5183L182.414 65.2419L179.793 64.9111L181.924 64.2749L179.958 61.482L182.745 61.3229L186.352 63.2888L187.173 67.2268L188.98 69.3581L190.456 74.1168L194.07 76.7443V82.1583L197.843 84.6204L197.678 86.4272L197.188 88.5585L198.168 91.5104L198.498 92.9864L201.285 93.4826L202.602 90.6897L203.448 88.902ZM205.58 72.3609V73.3025L204.721 75.9363L205.211 78.233L207.018 78.8692V81.9866L205.052 81.1659L204.568 90.0535L202.602 93.6608L203.913 98.2605L206.044 100.226V109.089L208.182 115.979L210.479 121.227L214.252 122.213L215.563 118.93L216.097 118.511C216.453 115.659 216.631 112.789 216.632 109.916C216.652 96.5912 212.804 83.5475 205.554 72.3673L205.58 72.3609ZM167.672 71.3366L156.856 66.5779L152.096 66.7433L150.951 69.8607L148.979 67.7231L145.371 68.5437L145.04 73.9641L147.993 76.0954L150.13 72.978L152.548 75.421L157.638 79.8744L158.624 84.6331L162.887 90.0472L169.784 88.902L169.619 86.4399L168.143 83.647L167.818 77.0879L169.46 74.295L167.672 71.3366ZM176.535 74.9439L174.073 74.3077L171.941 76.1145L173.086 80.8732H175.224L176.535 74.9439ZM191.805 78.0612L186.225 75.1093L185.073 73.1434L183.763 73.6333L184.908 76.9161L185.894 81.1786L188.356 82.1647L188.846 81.5285L187.37 79.0664L191.64 80.7078L191.805 78.0612ZM143.889 137.297L143.252 137.934L148.177 139.41L150.149 141.706L153.267 142.037L154.412 140.23L150.639 139.594L143.889 137.297ZM158.523 140.415L155.074 141.401L155.57 142.711H159.833L160.654 141.401L159.178 141.56L158.523 140.415Z" fill="#49448C" stroke="#263238" stroke-miterlimit="10"/>
<path d="M196.45 195.662C196.392 197.451 196.606 199.238 197.086 200.962C197.843 203.379 198.594 205.65 199.351 206.56C200.108 207.47 201.323 205.956 200.261 204.136C199.198 202.317 199.809 200.357 200.414 200.357C201.018 200.357 205.86 203.379 206.617 204.442C207.374 205.504 209.646 208.227 209.646 206.407C209.646 204.588 206.165 200.809 205.561 199.746C204.956 198.684 201.622 194.148 201.622 194.148L196.45 195.662Z" fill="white" stroke="#263238" stroke-linejoin="round"/>
<path d="M198.594 190.057L201.622 194.148L195.871 197.323L193.147 193.995L198.594 190.057Z" fill="#BEBBDE" stroke="#263238" stroke-linejoin="round"/>
<path d="M166.508 274.811C166.508 274.811 164.236 279.805 163.326 281.173C162.416 282.541 161.659 283.139 160.145 283.444C158.631 283.75 156.06 284.049 156.06 285.257C156.078 286.008 156.298 286.74 156.696 287.376C156.696 287.376 163.81 288.89 166.24 288.286C168.671 287.681 171.082 284.348 171.082 284.348L172.596 285.257L176.987 281.02C176.71 279.532 176.192 278.098 175.453 276.777C174.092 274.054 173.335 272.088 173.335 272.088C173.335 272.088 169.988 274.811 166.508 274.811Z" fill="#616161" stroke="#263238" stroke-linejoin="round"/>
<path d="M176.02 278.03C174.429 279.525 170.751 283.12 169.746 284.004C168.474 285.13 165.865 287.382 163.867 287.382C162.429 287.382 158.414 286.803 156.232 286.473C156.33 286.787 156.466 287.089 156.639 287.37C156.639 287.37 163.753 288.884 166.183 288.279C168.614 287.675 171.025 284.341 171.025 284.341L172.539 285.251L176.929 281.014C176.762 279.983 176.456 278.979 176.02 278.03Z" stroke="#263238" stroke-linejoin="round"/>
<path d="M154.705 254.682C154.705 254.682 157.581 260.732 160.431 264.365C163.282 267.997 166.482 276.173 166.482 276.173C166.482 276.173 169.059 277.082 170.872 275.715C172.025 274.775 172.869 273.512 173.296 272.088C173.296 272.088 169.663 260.885 168.302 256.043C166.94 251.202 163.606 240.603 162.092 238.033C160.945 236.14 159.691 234.313 158.338 232.561C158.338 232.561 156.671 242.55 155.914 246.329C155.157 250.108 154.705 254.682 154.705 254.682Z" fill="#263238" stroke="#263238" stroke-linejoin="round"/>
<path d="M141.229 185.063L141.382 194.746C141.382 194.746 138.837 212.61 140.93 221.689C143.023 230.767 146.376 240.775 146.376 240.775C146.376 240.775 144.716 257.424 144.105 261.508C143.494 265.593 140.924 273.316 140.924 273.316C140.924 273.316 145.314 275.587 146.071 275.587H147.585C147.585 275.587 152.122 263.328 153.032 261.508C153.942 259.689 157.116 256.215 158.179 248.644C159.242 241.074 159.547 233.198 159.547 233.198C159.547 233.198 167.112 223.508 168.932 220.474C170.751 217.439 173.621 211.236 173.621 211.236C173.621 211.236 176.955 202.609 176.497 194.288C176.039 185.966 173.475 181.729 173.475 181.729C173.475 181.729 158.637 185.209 151.676 185.209C144.716 185.209 141.229 185.063 141.229 185.063Z" fill="#263238" stroke="#263238" stroke-linejoin="round"/>
<path d="M145.091 130.706C145.091 130.706 148.031 133.646 147.585 134.67C147.14 135.694 139.518 136.14 137.902 138.048C136.285 139.957 129.389 164.17 129.389 164.17C129.389 164.17 121.168 161.816 120.436 161.231C119.705 160.646 118.82 161.085 118.381 162.847C117.942 164.609 113.539 168.573 114.125 169.597C114.71 170.621 122.784 174.585 126.748 175.616C129.161 176.237 131.618 176.677 134.097 176.932L133.511 184.42C133.511 184.42 140.994 188.677 155.526 186.768C170.058 184.859 176.09 181.78 176.09 181.78L174.333 166.664C174.333 166.664 183.877 184.567 185.487 187.659C187.097 190.751 189.152 195.293 190.914 195.878C192.677 196.464 198.988 192.354 199.135 190.598C199.281 188.842 193.854 180.323 189.591 172.988C185.328 165.653 179.462 144.957 178.584 140.542C177.706 136.127 175.351 132.469 172.857 131.883C170.363 131.298 163.613 131.292 160.673 130.706C157.734 130.121 153.63 125.28 151.721 119.115L145.091 130.706Z" fill="#BEBBDE" stroke="#263238" stroke-miterlimit="10"/>
<path d="M139.823 144.366C140.567 142.788 141.14 141.713 141.14 141.713" stroke="#263238" stroke-miterlimit="10"/>
<path d="M134.097 176.932C134.097 176.932 135.859 158.006 136.591 153.457C137.054 151.207 137.76 149.014 138.697 146.917" stroke="#263238" stroke-miterlimit="10"/>
<path d="M169.453 149.315C169.237 148.272 169.033 147.248 168.868 146.261" stroke="#263238" stroke-miterlimit="10"/>
<path d="M174.302 166.664C174.302 166.664 171.865 159.443 170.102 152.153" stroke="#263238" stroke-miterlimit="10"/>
<path d="M143.641 135.93C144.347 137.444 146.612 140.504 153.477 140.383C161.577 140.249 165.14 134.657 166.45 131.254C164.514 131.175 162.583 130.988 160.667 130.694C157.734 130.108 153.623 125.267 151.715 119.102L145.091 130.706C145.091 130.706 148.031 133.646 147.585 134.67C147.382 135.147 145.613 135.503 143.641 135.93Z" fill="white" stroke="#263238" stroke-miterlimit="10"/>
<path d="M150.582 123.295L148.584 124.567L145.091 130.687C145.923 131.523 146.661 132.447 147.293 133.442C150.582 129.529 150.582 123.295 150.582 123.295Z" fill="#263238" stroke="#263238" stroke-linejoin="round"/>
<path d="M128.071 116.774C128.071 116.774 130.858 121.615 131.59 123.816C132.662 126.514 134.705 128.713 137.316 129.981C139.957 131.152 141.28 132.182 143.628 132.329C146.994 132.539 149.494 127.78 150.818 124.109C152.141 120.438 152.141 119.853 152.141 119.853C152.141 119.853 154.19 116.774 154.19 113.542C154.19 110.31 150.525 106.646 146.415 104.737C142.304 102.828 139.518 100.042 135.261 103.859C131.005 107.676 128.071 116.774 128.071 116.774Z" fill="white" stroke="#263238" stroke-miterlimit="10"/>
<path d="M135.407 121.463C135.719 122.313 135.916 123.201 135.993 124.103C135.993 125.133 137.316 125.572 138.487 123.371" stroke="#263238" stroke-miterlimit="10"/>
<path d="M138.78 126.317C138.78 126.317 142.451 126.902 143.182 122.5" stroke="#263238" stroke-miterlimit="10"/>
<path d="M139.53 116.373C139.874 116.958 139.887 117.588 139.53 117.785C139.174 117.983 138.652 117.658 138.309 117.073C137.965 116.487 137.959 115.851 138.309 115.66C138.659 115.47 139.187 115.788 139.53 116.373Z" fill="#263238"/>
<path d="M133.607 119.319C133.95 119.904 133.963 120.54 133.607 120.731C133.251 120.922 132.729 120.604 132.392 120.018C132.054 119.433 132.035 118.797 132.392 118.606C132.748 118.415 133.27 118.721 133.607 119.319Z" fill="#263238"/>
<path d="M135.325 114.413C135.325 114.413 135.961 112.11 140.09 112.416" stroke="#263238" stroke-miterlimit="10"/>
<path d="M132.245 116.723C132.245 116.723 129.942 116.723 130.095 118.568" stroke="#263238" stroke-miterlimit="10"/>
<path d="M138.633 106.2C138.633 106.2 136.725 108.401 134.523 110.603C132.322 112.804 128.657 116.036 128.657 119.993C128.657 123.95 128.803 124.395 128.803 124.395C128.803 124.395 122.492 121.17 120.729 116.761C118.967 112.352 122.931 102.23 127.772 97.6751C132.614 93.12 138.341 92.2484 144.652 92.6874C150.964 93.1263 157.276 99.4374 158.892 105.748C160.508 112.06 157.275 118.956 156.245 120.126C155.214 121.297 151.988 121.45 151.988 121.45C152.677 119.218 152.829 116.855 152.434 114.553C151.696 111.175 149.64 111.913 149.348 113.376C149.055 114.84 148.909 115.431 148.909 115.431C148.909 115.431 145.976 113.376 142.89 111.175C141.075 109.902 139.61 108.191 138.633 106.2Z" fill="#263238" stroke="#263238" stroke-linejoin="round"/>
<path d="M110.753 165.494L114.71 159.622L116.619 161.53L110.753 165.494Z" fill="#BEBBDE" stroke="#263238" stroke-linejoin="round"/>
<path d="M124.744 156.835L115.525 156.873L106.738 139.95L115.957 139.912L124.744 156.835Z" fill="#263238" stroke="#263238" stroke-linejoin="round"/>
<path d="M108.259 148.17C108.259 148.17 110.606 150.371 110.753 151.402C110.899 152.433 112.07 156.39 112.661 158.298C113.253 160.207 115.448 162.262 115.448 162.262L117.357 160.353L116.619 157.121C117.323 156.497 118.058 155.909 118.82 155.359C119.705 154.774 120.729 153.158 120.144 153.158C119.699 153.171 119.256 153.222 118.82 153.31C118.82 153.31 120.144 151.256 119.266 151.109C118.683 151.014 118.094 150.963 117.503 150.957C117.503 150.957 118.967 149.201 117.796 149.048C116.625 148.895 112.509 151.103 112.509 151.103L110.753 148.456C110.378 148.242 109.964 148.106 109.535 148.057C109.106 148.008 108.672 148.046 108.259 148.17Z" fill="white" stroke="#263238" stroke-linejoin="round"/>
<path d="M108.742 147.203C108.616 147.312 108.524 147.453 108.474 147.612C108.425 147.77 108.42 147.94 108.462 148.1C108.504 148.261 108.59 148.407 108.71 148.522C108.83 148.636 108.98 148.715 109.143 148.749C109.413 148.844 109.703 148.868 109.985 148.818C110.268 148.767 110.532 148.645 110.753 148.463C111.484 147.585 114.417 145.237 114.417 144.06C114.417 142.883 113.1 144.207 112.509 144.506C111.185 145.306 109.926 146.208 108.742 147.203V147.203Z" fill="white" stroke="#263238" stroke-linejoin="round"/>
<path d="M117.503 150.957C117.503 150.957 113.1 153.158 112.362 154.042" stroke="#263238" stroke-linejoin="round"/>
<path d="M118.827 153.31C118.827 153.31 115.308 154.92 114.131 156.243" stroke="#263238" stroke-linejoin="round"/>
<path d="M119.113 161.085L117.064 159.323L110.753 165.487L115.009 168.719C115.009 168.719 118.967 164.902 119.113 161.085Z" fill="#BEBBDE" stroke="#263238" stroke-linejoin="round"/>
<path d="M159.7 195.204C159.7 195.204 152.885 211.242 151.371 217.929C149.857 224.615 146.981 237.301 146.981 238.058" stroke="#757575" stroke-linejoin="round"/>
<path d="M149.857 199.746L153.795 204.282" stroke="#757575" stroke-linejoin="round"/>
<path d="M140.93 272.845C140.93 272.845 140.02 274.811 135.63 275.715C131.24 276.618 127.155 274.964 126.398 275.11C125.641 275.256 124.884 276.624 124.884 277.839C124.884 279.055 130.184 282.376 132.303 283.438C133.991 284.156 135.777 284.615 137.603 284.799H138.353L138.207 286.314C139.437 286.804 140.7 287.207 141.986 287.522C143.142 287.693 144.317 287.693 145.473 287.522C145.933 285.587 146.187 283.608 146.23 281.618C146.333 279.538 146.794 277.492 147.592 275.568L140.93 272.845Z" fill="#616161" stroke="#263238" stroke-linejoin="round"/>
<path d="M145.931 285.156C142.947 284.768 137.443 283.883 134.103 282.611C130.566 281.275 126.602 278.552 124.922 277.343C124.897 277.501 124.884 277.661 124.884 277.82C124.884 279.029 130.184 282.356 132.303 283.419C133.991 284.137 135.777 284.596 137.603 284.78H138.353L138.207 286.294C139.437 286.784 140.7 287.188 141.986 287.503C143.142 287.674 144.317 287.674 145.473 287.503C145.473 287.503 145.715 286.536 145.931 285.156Z" stroke="#263238" stroke-linejoin="round"/>
</g>
<defs>
<clipPath id="clip0_98_35">
<rect width="294" height="293" fill="white"/>
</clipPath>
</defs>
</svg>
