<svg width="325" height="15" viewBox="0 0 325 15" fill="none" xmlns="http://www.w3.org/2000/svg">
<line y1="10.5" x2="140" y2="10.5" stroke="black"/>
<line x1="185" y1="10.5" x2="325" y2="10.5" stroke="black"/>
<path d="M158.452 14.084C157.715 14.084 157.052 13.9207 156.464 13.594C155.876 13.2673 155.414 12.8193 155.078 12.25C154.751 11.6713 154.588 11.018 154.588 10.29C154.588 9.562 154.751 8.91333 155.078 8.344C155.414 7.76533 155.876 7.31733 156.464 7C157.052 6.67333 157.715 6.51 158.452 6.51C159.189 6.51 159.847 6.67333 160.426 7C161.014 7.31733 161.471 7.76533 161.798 8.344C162.134 8.91333 162.302 9.562 162.302 10.29C162.302 11.018 162.134 11.6713 161.798 12.25C161.471 12.8193 161.014 13.2673 160.426 13.594C159.847 13.9207 159.189 14.084 158.452 14.084ZM158.452 12.908C158.928 12.908 159.353 12.8007 159.726 12.586C160.109 12.362 160.407 12.054 160.622 11.662C160.837 11.2607 160.944 10.8033 160.944 10.29C160.944 9.77667 160.837 9.324 160.622 8.932C160.407 8.53067 160.109 8.22267 159.726 8.008C159.353 7.79333 158.928 7.686 158.452 7.686C157.976 7.686 157.547 7.79333 157.164 8.008C156.791 8.22267 156.492 8.53067 156.268 8.932C156.053 9.324 155.946 9.77667 155.946 10.29C155.946 10.8033 156.053 11.2607 156.268 11.662C156.492 12.054 156.791 12.362 157.164 12.586C157.547 12.8007 157.976 12.908 158.452 12.908ZM165.449 7.826C165.682 7.39667 166.027 7.07 166.485 6.846C166.942 6.622 167.497 6.51 168.151 6.51V7.812C168.076 7.80267 167.973 7.798 167.843 7.798C167.115 7.798 166.541 8.01733 166.121 8.456C165.71 8.88533 165.505 9.50133 165.505 10.304V14H164.161V6.58H165.449V7.826Z" fill="black"/>
</svg>
